<?xml version="1.0" encoding="UTF-8"?>
<svg version="1.1" xmlns="http://www.w3.org/2000/svg" width="500" height="500">
<path d="M0 0 C165 0 330 0 500 0 C500 165 500 330 500 500 C335 500 170 500 0 500 C0 335 0 170 0 0 Z " fill="#FEFEFE" transform="translate(0,0)"/>
<path d="M0 0 C3.40974729 1.24846245 6.1522549 2.6498155 9.046875 4.8359375 C10.17826904 5.68188477 10.17826904 5.68188477 11.33251953 6.54492188 C12.13028809 7.14884766 12.92805664 7.75277344 13.75 8.375 C15.44949413 9.64460467 17.15003701 10.91280656 18.8515625 12.1796875 C19.70911133 12.81874023 20.56666016 13.45779297 21.45019531 14.11621094 C25.30462138 16.96385088 29.20733258 19.7402682 33.125 22.5 C33.7859668 22.96712402 34.44693359 23.43424805 35.12792969 23.91552734 C40.03312837 27.36445663 45.00687332 30.67124888 50 34 C50 41.26 50 48.52 50 56 C-5.44 56.33 -60.88 56.66 -118 57 C-121.96 66.57 -125.92 76.14 -130 86 C-133.58956276 94.0455717 -137.2080224 102.05133207 -141 110 C-141.49048828 111.03157227 -141.98097656 112.06314453 -142.48632812 113.12597656 C-151.18116311 131.28741031 -160.9952216 148.67702366 -171.70849609 165.7175293 C-173.16415506 167.85302266 -173.16415506 167.85302266 -173 170 C-166.5535064 176.24085703 -160.11328847 176.86553077 -151.50366211 176.77294922 C-150.28315155 176.78357895 -149.06264099 176.79420868 -147.80514526 176.80516052 C-144.48483227 176.82831982 -141.16654181 176.82530934 -137.84631801 176.81029272 C-134.36688895 176.80086633 -130.88769632 176.82540575 -127.40834045 176.84622192 C-120.83180278 176.88046869 -114.25561327 176.88451368 -107.67900425 176.87749684 C-100.18669286 176.8709893 -92.69462402 176.898472 -85.20238483 176.92869925 C-69.80155018 176.9900778 -54.40096412 177.00913095 -39 177 C-38.69955276 176.3758017 -38.39910553 175.75160339 -38.08955383 175.10848999 C-36.93170155 172.86782975 -35.65694445 171.35810059 -33.91796875 169.5390625 C-33.31533203 168.90226563 -32.71269531 168.26546875 -32.09179688 167.609375 C-31.14916992 166.62710938 -31.14916992 166.62710938 -30.1875 165.625 C-28.95026594 164.32700314 -27.71456459 163.02754345 -26.48046875 161.7265625 C-25.93285889 161.15502441 -25.38524902 160.58348633 -24.82104492 159.99462891 C-22.45435309 157.40234143 -20.23359106 154.70783196 -18 152 C-9.05436748 157.07769022 -0.13429472 162.19487498 8.68945312 167.48217773 C9.90784475 168.20917112 11.12927355 168.93109582 12.35351562 169.64819336 C20.67900844 174.52854098 27.84228685 178.9157368 32 188 C33.14456411 194.19269423 31.60123474 199.18863831 28.63671875 204.625 C26.02550154 208.41406936 22.82839058 211.44773961 19 214 C18.34 214 17.68 214 17 214 C17.10818214 224.43246841 17.22094359 234.86487675 17.33933926 245.29723454 C17.39419256 250.14287873 17.44754642 254.98852921 17.49731445 259.83422852 C17.54552006 264.52217054 17.59787204 269.21005055 17.65294075 273.89791679 C17.6731132 275.6745897 17.69186289 277.45127942 17.70907402 279.22798347 C17.80272764 288.7943466 18.06605083 298.28767361 18.77070618 307.83106995 C19.1932766 313.67115795 19.2987921 319.510327 19.35009766 325.36401367 C19.36685174 326.75903783 19.39438868 328.15396978 19.43212891 329.54858398 C19.81264882 343.81808089 19.81264882 343.81808089 15.39941406 349.55200195 C8.27766244 356.9210021 -0.7167962 359.01533959 -10.5625 359.375 C-16.35610562 359.25429988 -19.56067744 358.77814686 -24 355 C-30.07040235 348.09355421 -28 340.06862172 -28 331 C-74.53 331 -121.06 331 -169 331 C-169 337.27 -169 343.54 -169 350 C-174.659945 359.05591201 -174.659945 359.05591201 -177.9375 361.375 C-178.87916016 362.06722656 -178.87916016 362.06722656 -179.83984375 362.7734375 C-187.14360737 366.92060165 -196.25615873 367.38841196 -204.359375 365.4296875 C-207.41325938 364.18986264 -210.09490681 362.70723769 -212 360 C-213.60888657 355.85640363 -214.24836566 352.41859643 -214.23046875 347.984375 C-214.22853516 346.81261719 -214.22660156 345.64085937 -214.22460938 344.43359375 C-214.21236328 343.21800781 -214.20011719 342.00242187 -214.1875 340.75 C-214.1865332 339.04263672 -214.1865332 339.04263672 -214.18554688 337.30078125 C-214.15694898 331.39690522 -214.03450354 325.5080452 -213.76635742 319.60986328 C-212.8956786 300.39516127 -212.88091353 281.21429419 -212.93133545 261.98400879 C-212.94176159 257.57137548 -212.94617338 253.15873596 -212.95117188 248.74609375 C-212.9617393 240.16404612 -212.97869254 231.58202767 -213 223 C-213.60763184 223.75128174 -214.21526367 224.50256348 -214.84130859 225.27661133 C-215.64391113 226.2642749 -216.44651367 227.25193848 -217.2734375 228.26953125 C-218.06669434 229.24768799 -218.85995117 230.22584473 -219.67724609 231.23364258 C-222.09167161 234.10917921 -224.63492344 236.73140776 -227.33203125 239.3359375 C-229.09054949 241.09033743 -230.69890935 242.92433565 -232.3125 244.8125 C-238.93662026 252.47628038 -246.22499859 259.51457209 -254 266 C-254.80751709 266.67820801 -254.80751709 266.67820801 -255.63134766 267.37011719 C-265.01242989 275.22322962 -274.65554508 282.554179 -284.75439453 289.45898438 C-287.15823489 291.1085865 -289.54539875 292.78096813 -291.93359375 294.453125 C-293.55906986 295.5741153 -295.18535157 296.69393849 -296.8125 297.8125 C-297.57159668 298.34689697 -298.33069336 298.88129395 -299.11279297 299.43188477 C-299.8245166 299.91455811 -300.53624023 300.39723145 -301.26953125 300.89453125 C-301.89448486 301.32612549 -302.51943848 301.75771973 -303.16333008 302.20239258 C-305 303 -305 303 -307.0925293 302.79174805 C-309.95068853 301.60539065 -311.23065777 299.46444097 -313 297 C-311.64768813 293.97022571 -310.14519457 291.91527387 -307.76953125 289.609375 C-307.1348291 288.98635498 -306.50012695 288.36333496 -305.84619141 287.72143555 C-305.17507324 287.07086182 -304.50395508 286.42028809 -303.8125 285.75 C-299.23835387 281.24858764 -294.72753325 276.7722285 -290.5859375 271.86328125 C-288.69808593 269.64528815 -286.72297208 267.51757845 -284.75 265.375 C-279.6945111 259.76443208 -275.06600895 253.86736713 -270.46240234 247.88623047 C-269.02876217 246.03709792 -267.57378146 244.20686498 -266.11328125 242.37890625 C-251.29081644 223.64475682 -237.79428031 203.31781764 -226.30712891 182.37304688 C-224.88628385 179.7935523 -223.43352578 177.23335081 -221.98046875 174.671875 C-200.83091058 136.97681004 -186.66668076 97.00004228 -173 56 C-213.59 56 -254.18 56 -296 56 C-296 37 -296 37 -295 36 C-293.56649935 35.90337758 -292.12824998 35.87628173 -290.69149685 35.87695217 C-289.75595579 35.87496112 -288.82041472 35.87297007 -287.85652393 35.87091869 C-286.81666263 35.87383153 -285.77680133 35.87674437 -284.70542908 35.87974548 C-283.61018262 35.87889106 -282.51493616 35.87803663 -281.38650042 35.87715632 C-277.68595477 35.87549829 -273.98545363 35.88102814 -270.28491211 35.88647461 C-267.64440305 35.88675644 -265.00389678 35.88664295 -262.36338806 35.8860321 C-256.66284149 35.88550668 -250.96230632 35.8886554 -245.26176262 35.89426994 C-237.01964187 35.90238246 -228.77752667 35.90499991 -220.53540237 35.90625793 C-207.16446759 35.90844885 -193.79353889 35.91510999 -180.42260742 35.92456055 C-167.43074575 35.93373365 -154.43888574 35.94081498 -141.44702148 35.94506836 C-140.64676939 35.94533108 -139.8465173 35.94559381 -139.02201515 35.94586449 C-135.0075547 35.94716949 -130.99309423 35.94843321 -126.97863376 35.94967639 C-93.65241809 35.96005023 -60.32620979 35.9776696 -27 36 C-26.56349121 35.09048584 -26.56349121 35.09048584 -26.11816406 34.16259766 C-24.63472697 31.29353963 -22.73740309 28.92177151 -20.75 26.375 C-20.32468994 25.82811523 -19.89937988 25.28123047 -19.46118164 24.71777344 C-18.51150791 23.49726869 -17.5603288 22.27793428 -16.60791016 21.05957031 C-14.82065407 18.770276 -13.04081669 16.475327 -11.26171875 14.1796875 C-9.98712886 12.53634222 -8.71239038 10.89311218 -7.4375 9.25 C-6.8177832 8.45126465 -6.19806641 7.6525293 -5.55957031 6.82958984 C-4.69283691 5.71511475 -4.69283691 5.71511475 -3.80859375 4.578125 C-3.29095459 3.91200195 -2.77331543 3.24587891 -2.23999023 2.55957031 C-1 1 -1 1 0 0 Z " fill="#020202" transform="translate(376,67)"/>
<path d="M0 0 C46.53 0 93.06 0 141 0 C141 37.95 141 75.9 141 115 C94.47 115 47.94 115 0 115 C0 77.05 0 39.1 0 0 Z " fill="#FEFEFE" transform="translate(207,264)"/>
</svg>
