<?xml version="1.0" encoding="UTF-8"?>
<svg version="1.1" xmlns="http://www.w3.org/2000/svg" width="748" height="366">
<path d="M0 0 C6.13397154 1.51198096 12.16176672 3.28622105 18.125 5.375 C19.22070312 5.75398438 20.31640625 6.13296875 21.4453125 6.5234375 C24 8 24 8 24.94140625 10.5546875 C25 13 25 13 23.8125 14.75 C22 16 22 16 20.02050781 16.36694336 C17.55269946 16.90121315 17.55269946 16.90121315 15.859375 20.37890625 C15.14240736 21.76637141 14.43974229 23.16130132 13.75 24.5625 C13.38648438 25.27341797 13.02296875 25.98433594 12.6484375 26.71679688 C11.75334271 28.47165376 10.87503818 30.2350565 10 32 C19.65805613 33.44776531 19.65805613 33.44776531 28.70605469 30.92041016 C31.14063867 28.65765069 33.01728321 26.11926564 34.921875 23.40625 C37 21 37 21 39.4453125 20.38671875 C42.91432934 21.21949496 44.56150303 22.85483547 47.125 25.3125 C47.97320313 26.11300781 48.82140625 26.91351563 49.6953125 27.73828125 C52 30 52 30 53.4453125 31.765625 C57.2325805 34.77260161 63.48253733 33.43157483 68 33 C76.31433116 31.49763258 84.42993396 29.16389187 91.4375 24.3125 C94.90004878 22.53899941 97.15147786 22.52737447 101 23 C106.1582191 25.73082188 109.85574828 29.06785496 112 34.5625 C112 37 112 37 110.28125 38.99609375 C108.08196205 40.92800251 106.08570061 42.15543568 103.5 43.5 C82.25826636 55.99513743 69.50130393 81.09197199 63 104 C60.15247532 115.35382451 61.22847231 127.87600325 66.6875 138.1875 C72.40648035 145.14301665 77.92365499 149.65890417 87 151 C99.47599182 152.03320843 111.29953518 150.93092938 121.26953125 142.60546875 C121.84058594 142.07566406 122.41164063 141.54585937 123 141 C123.51949219 140.52175781 124.03898438 140.04351562 124.57421875 139.55078125 C134.48582777 129.22293668 138.10789502 114.57018679 141 101 C141.2475 99.84757812 141.495 98.69515625 141.75 97.5078125 C143.2468124 88.67246151 143.23244746 79.75296833 143.3125 70.8125 C143.33030518 69.54108154 143.34811035 68.26966309 143.36645508 66.9597168 C143.3582669 57.27813534 141.93187094 48.67499878 138.3125 39.6875 C136.90342091 35.72865874 136.37251879 33.15706301 137 29 C138.875 26.0625 138.875 26.0625 142 24 C145.43559077 23.36727407 148.59081492 23.1962084 152 24 C155.02156872 26.16493841 155.89007544 27.33874841 156.50390625 31.03125 C156.52324219 32.1759375 156.54257812 33.320625 156.5625 34.5 C157.79886684 59.96389573 173.32517326 79.30687853 191.37109375 96.11328125 C194.35460038 99.56899756 195.28132261 103.05987455 195.25 107.5625 C195.25515625 108.30628906 195.2603125 109.05007812 195.265625 109.81640625 C194.96184172 112.31368349 194.34554325 113.87852681 193 116 C189.87341605 118.0843893 187.91337157 118.61508337 184.171875 118.4921875 C179.7181678 117.48289414 177.01815381 114.24723569 174 111 C173.28972656 110.25878906 172.57945312 109.51757812 171.84765625 108.75390625 C164.1580289 100.09125049 157.67086204 89.01258612 154 78 C153.98018066 78.69859131 153.96036133 79.39718262 153.93994141 80.11694336 C152.1977452 138.72115107 152.1977452 138.72115107 131.56640625 159.73046875 C122.78933573 167.49223127 111.70015944 172.245151 100 173 C99.34 173.0515625 98.68 173.103125 98 173.15625 C86.68719188 173.65534448 75.20590745 170.62581067 66 164 C63.70022321 161.77613818 61.91202952 159.58382367 60 157 C54.65915959 161.01619173 54.65915959 161.01619173 52 167 C51.835 168.216875 51.67 169.43375 51.5 170.6875 C51 174 51 174 49 176 C14.5467053 182.1567426 -42.39180563 185.40550148 -73 166 C-79.30144893 161.29460286 -82.56642052 154.93622521 -86 148 C-86.55171875 146.89785156 -87.1034375 145.79570312 -87.671875 144.66015625 C-88.11015625 143.78230469 -88.5484375 142.90445313 -89 142 C-89.56847656 143.03898438 -90.13695312 144.07796875 -90.72265625 145.1484375 C-91.50126772 146.5580307 -92.28131567 147.96683102 -93.0625 149.375 C-93.46863525 150.10799316 -93.87477051 150.84098633 -94.29321289 151.59619141 C-96.61835092 155.73250398 -99.06182871 159.58930615 -101.9375 163.375 C-105.32250881 167.9823731 -106.41247332 172.36454002 -107 178 C-108.65 178.33 -110.3 178.66 -112 179 C-116.80826932 173.86796469 -119.69435602 169.03463848 -122.375 162.5625 C-122.72949219 161.73556641 -123.08398438 160.90863281 -123.44921875 160.05664062 C-124.31074131 158.04254059 -125.15699774 156.02192167 -126 154 C-123.88069698 151.69983111 -121.86958275 150.23711757 -119.09375 148.80859375 C-117.97806641 148.22754883 -117.97806641 148.22754883 -116.83984375 147.63476562 C-116.06769531 147.23966797 -115.29554688 146.84457031 -114.5 146.4375 C-112.96802331 145.64593609 -111.43674497 144.85301878 -109.90625 144.05859375 C-109.22884766 143.71111084 -108.55144531 143.36362793 -107.85351562 143.00561523 C-105.7642352 141.90838395 -105.7642352 141.90838395 -103 140 C-102.52352308 137.70338636 -102.52352308 137.70338636 -102.56762695 134.99951172 C-102.53793571 133.43811966 -102.53793571 133.43811966 -102.50764465 131.84518433 C-102.50125473 130.71807037 -102.49486481 129.59095642 -102.48828125 128.4296875 C-102.47033005 127.27832306 -102.45237885 126.12695862 -102.43388367 124.94070435 C-102.3795684 121.25217384 -102.34581641 117.56377427 -102.3125 113.875 C-102.27934573 111.37888794 -102.24485787 108.88279321 -102.20898438 106.38671875 C-102.1238295 100.25790669 -102.05711942 94.12913489 -102 88 C-106.29 88.33 -110.58 88.66 -115 89 C-115.02578125 90.0415625 -115.0515625 91.083125 -115.078125 92.15625 C-115.81459672 113.22628434 -121.47810752 132.17557137 -136 148 C-136.67546875 148.76699219 -137.3509375 149.53398437 -138.046875 150.32421875 C-149.90483982 163.06936707 -171.23253602 174.33576369 -188.73828125 176.30859375 C-191.1875 176.375 -191.1875 176.375 -195 176 C-195.66 175.34 -196.32 174.68 -197 174 C-197.9075 174.639375 -198.815 175.27875 -199.75 175.9375 C-205.46456834 179.56405298 -210.76964083 179.21380625 -217.375 179.25 C-218.77492188 179.2809375 -218.77492188 179.2809375 -220.203125 179.3125 C-225.57491925 179.34293509 -229.36347693 179.03185719 -234 176 C-237.81234597 172.05619383 -238.12845255 167.60065649 -238.11352539 162.30151367 C-238.11344986 161.40095749 -238.11337433 160.50040131 -238.11329651 159.57255554 C-238.10813522 158.6140419 -238.10297394 157.65552826 -238.09765625 156.66796875 C-238.09553383 155.18034782 -238.09553383 155.18034782 -238.09336853 153.66267395 C-238.08778418 150.50425157 -238.07523452 147.34590085 -238.0625 144.1875 C-238.05748298 142.04231873 -238.05292042 139.89713635 -238.04882812 137.75195312 C-238.03781988 132.50127776 -238.0210973 127.250644 -238 122 C-238.28420052 122.88353149 -238.28420052 122.88353149 -238.57414246 123.78491211 C-239.45308006 126.50459204 -240.34171222 129.22101366 -241.23046875 131.9375 C-241.5282019 132.86369141 -241.82593506 133.78988281 -242.13269043 134.74414062 C-248.14866945 153.04491738 -259.39128056 172.18125717 -275 184 C-277.3203125 183.7890625 -277.3203125 183.7890625 -279 183 C-278.43546032 178.6427078 -276.84786021 175.89148353 -274.4375 172.25 C-255.01891381 141.76467075 -248.8948316 105.15989592 -247.2109375 69.59765625 C-247 67 -247 67 -246 65 C-248.10494301 65.08708038 -250.20902142 65.19525693 -252.3125 65.3125 C-253.48425781 65.37050781 -254.65601563 65.42851562 -255.86328125 65.48828125 C-258.8752743 65.77451649 -258.8752743 65.77451649 -260.68432617 67.04174805 C-262.74312509 70.10606909 -262.30699117 73.28859758 -262.1875 76.84375 C-262.17614014 77.60925171 -262.16478027 78.37475342 -262.15307617 79.16345215 C-262.11642499 81.60948214 -262.06055002 84.05445178 -262 86.5 C-261.92030674 89.7187221 -261.86027419 92.93691359 -261.8125 96.15625 C-261.77515747 97.26728088 -261.77515747 97.26728088 -261.73706055 98.40075684 C-261.66392811 103.49891984 -261.66392811 103.49891984 -263.30078125 105.93945312 C-266.12195227 107.70025297 -268.72113675 107.83040363 -272 108 C-276.3125 106.6875 -276.3125 106.6875 -278 105 C-278.04063832 103.33382885 -278.042721 101.66611905 -278 100 C-278.99 100 -279.98 100 -281 100 C-280.96970703 101.2782666 -280.93941406 102.5565332 -280.90820312 103.87353516 C-280.79379394 108.73057344 -280.68282009 113.58768574 -280.57275391 118.44482422 C-280.52515192 120.52557418 -280.47668404 122.60630457 -280.42724609 124.68701172 C-280.28297908 130.77272428 -280.15666256 136.85838013 -280.05419922 142.94494629 C-280.01776446 144.99866875 -279.9763424 147.05230822 -279.93017578 149.10583496 C-279.86517808 152.09916886 -279.8207925 155.09217213 -279.78125 158.0859375 C-279.75800659 158.98228912 -279.73476318 159.87864075 -279.71081543 160.80215454 C-279.6646722 166.32899254 -280.35908861 170.11336736 -283 175 C-286.96066451 178.85643649 -290.67116944 180.81734662 -296.1875 181.25 C-299 181 -299 181 -301 179 C-301.32738012 177.34351253 -301.591091 175.67394938 -301.8125 174 C-302.25645649 171.33243344 -302.25645649 171.33243344 -303 169 C-305.19418437 167.32221688 -305.19418437 167.32221688 -308 167 C-311.25 166.125 -311.25 166.125 -314 165 C-314.875 162.875 -314.875 162.875 -315 161 C-311 160 -311 160 -297 161 C-297.33 149.78 -297.66 138.56 -298 127 C-298.66 127 -299.32 127 -300 127 C-300.33 128.175625 -300.66 129.35125 -301 130.5625 C-306.4847041 146.88786338 -316.75564025 159.20727647 -329 171 C-329.99 170.67 -330.98 170.34 -332 170 C-331.34193283 164.95819308 -329.17889145 160.68741555 -327.0625 156.125 C-324.59694767 150.80575829 -322.44895788 145.68962519 -321 140 C-321.78117188 140.62003906 -322.56234375 141.24007812 -323.3671875 141.87890625 C-331.69175451 148.30776756 -340.45895332 153.81250922 -349.5625 159.0625 C-350.69220215 159.71742432 -351.8219043 160.37234863 -352.98583984 161.04711914 C-357.93654766 163.86938504 -362.52996466 166.32869864 -368 168 C-368.33 169.98 -368.66 171.96 -369 174 C-370.32 174.33 -371.64 174.66 -373 175 C-376.19167673 170.14310063 -378.85954274 165.40747098 -381 160 C-381.02578125 160.74765625 -381.0515625 161.4953125 -381.078125 162.265625 C-381.54441913 170.36218679 -381.54441913 170.36218679 -383.875 173.625 C-387.07326264 175.69446406 -389.7093167 176.15606506 -393.4375 176.1875 C-394.58025391 176.20876953 -394.58025391 176.20876953 -395.74609375 176.23046875 C-398.2732592 175.97205842 -399.85425032 175.34404101 -402 174 C-404.24103151 169.51793698 -403 164.01109879 -403 159 C-426.1 159 -449.2 159 -473 159 C-473 162.96 -473 166.92 -473 171 C-474.67084114 174.04331779 -475.63763218 175.36747208 -478.75 176.8125 C-489.26556017 177.68879668 -489.26556017 177.68879668 -493 175 C-494.3890952 172.2218096 -494.16331551 169.91465255 -494.20532227 166.80615234 C-494.2352401 164.85435562 -494.2352401 164.85435562 -494.26576233 162.86312866 C-494.28274673 161.4373995 -494.29962553 160.01166907 -494.31640625 158.5859375 C-494.33697521 157.13147387 -494.35797166 155.67701623 -494.37937927 154.2225647 C-494.43460604 150.39213912 -494.4840126 146.56165955 -494.53222656 142.73114014 C-494.5824372 138.8233153 -494.63812554 134.915569 -494.69335938 131.0078125 C-494.80094833 123.33860815 -494.90239162 115.66933855 -495 108 C-495.54836014 108.48034195 -496.09672028 108.9606839 -496.66169739 109.45558167 C-497.38153305 110.08584763 -498.10136871 110.71611359 -498.84301758 111.36547852 C-499.55637772 111.99019547 -500.26973785 112.61491241 -501.00471497 113.25856018 C-508.84857103 120.10450102 -517.05875088 125.70537797 -526 131 C-526.72832031 131.47050781 -527.45664062 131.94101563 -528.20703125 132.42578125 C-531.02932362 134.21507772 -532.54980332 135.03831461 -535.9375 134.75 C-536.9584375 134.37875 -536.9584375 134.37875 -538 134 C-536.65170959 130.96706881 -535.17687243 128.9718068 -532.76171875 126.70703125 C-532.11275635 126.08562256 -531.46379395 125.46421387 -530.79516602 124.82397461 C-529.75187134 123.82829468 -529.75187134 123.82829468 -528.6875 122.8125 C-516.32995198 110.71376336 -506.28110643 97.16745837 -498 82 C-497.49243164 81.07550049 -497.49243164 81.07550049 -496.97460938 80.13232422 C-492.67662531 72.19584599 -489.07381826 64.0382558 -485.8125 55.625 C-485.50368896 54.83657715 -485.19487793 54.0481543 -484.87670898 53.23583984 C-481.62984144 44.59763795 -479.49941732 35.99790237 -477 27 C-494.16 27.33 -511.32 27.66 -529 28 C-529.66 25.03 -530.32 22.06 -531 19 C-530.15982834 19.06534439 -529.31965668 19.13068878 -528.45402527 19.19801331 C-508.27963809 20.62129456 -488.02879627 20.63355012 -467.8124361 20.80750179 C-460.855051 20.86875278 -453.90009409 20.95692182 -446.9440918 21.11108398 C-440.16913405 21.26120652 -433.39658671 21.33683617 -426.62004662 21.36721992 C-424.05427693 21.39043607 -421.48859985 21.43787072 -418.92376137 21.51078606 C-404.36874607 22.50014827 -404.36874607 22.50014827 -391.6680603 16.75271606 C-389.31342532 14.30138756 -387.39772861 11.72047043 -385.4896698 8.9155426 C-384.66807877 7.95341354 -383.84648773 6.99128448 -383 6 C-378.68008864 5.96495434 -376.20571669 7.1641737 -373 10 C-372.67 8.35 -372.34 6.7 -372 5 C-370.08085447 5.93241504 -368.16477614 6.87114475 -366.25 7.8125 C-365.18265625 8.33457031 -364.1153125 8.85664063 -363.015625 9.39453125 C-360 11 -360 11 -358.19140625 12.66015625 C-354.59251276 14.86054924 -350.82636738 14.61552349 -346.6875 14.625 C-345.82753418 14.62951172 -344.96756836 14.63402344 -344.08154297 14.63867188 C-340.25059893 14.53582774 -337.70138201 14.41895329 -334.37109375 12.4296875 C-332.59837002 10.57442375 -332.59837002 10.57442375 -331.3515625 8.53125 C-330 7 -330 7 -327.66796875 6.52734375 C-322.23487146 7.48986904 -318.43927995 11.91057261 -315 16 C-314.125 19.875 -314.125 19.875 -315 23 C-316.00214539 23.69663757 -316.00214539 23.69663757 -317.02453613 24.40734863 C-319.18758766 25.81614262 -319.18758766 25.81614262 -319.49206543 28.12487793 C-319.48888306 28.94411743 -319.48570068 29.76335693 -319.48242188 30.60742188 C-319.49263367 32.00402039 -319.49263367 32.00402039 -319.50305176 33.42883301 C-319.48607239 34.93359192 -319.48607239 34.93359192 -319.46875 36.46875 C-319.47579956 37.50060425 -319.48284912 38.5324585 -319.4901123 39.59558105 C-319.51220785 42.89730491 -319.50912226 46.19822339 -319.5 49.5 C-319.48799773 53.84419067 -319.50157151 58.18716657 -319.53125 62.53125 C-319.51427063 64.03600891 -319.51427063 64.03600891 -319.49694824 65.57116699 C-319.50716003 66.9677655 -319.50716003 66.9677655 -319.51757812 68.39257812 C-319.51439575 69.21181763 -319.51121338 70.03105713 -319.50793457 70.87512207 C-320 73 -320 73 -321.88928223 74.76086426 C-325.45036636 76.85146428 -329.00056985 76.68929573 -333 76 C-335.0625 74.25 -335.0625 74.25 -336 72 C-336 70.68 -336 69.36 -336 68 C-336.66 68 -337.32 68 -338 68 C-337.67 79.22 -337.34 90.44 -337 102 C-335.68 100.02 -334.36 98.04 -333 96 C-331.5625 94.0625 -331.5625 94.0625 -330 93 C-326.97132761 92.83174042 -325.44533321 93.62165547 -323.15625 95.56640625 C-318.36569416 100.26861167 -318.36569416 100.26861167 -317 103 C-316.67 85.84 -316.34 68.68 -316 51 C-311.31544921 51.93691016 -310.13355702 52.5008423 -306.5 55.0625 C-300.78230738 58.292879 -295.61524093 58.66522031 -289.1875 58.75 C-288.28 58.77715088 -287.3725 58.80430176 -286.4375 58.83227539 C-281.71094463 58.76900448 -278.89809151 58.46247297 -275.515625 55 C-274.68546875 54.01 -273.8553125 53.02 -273 52 C-270.5625 51.25 -270.5625 51.25 -268 52 C-266.16891684 53.50969212 -264.48878424 55.07416545 -262.84375 56.78515625 C-260.65121269 58.53975184 -260.65121269 58.53975184 -256 57 C-252.7 57.66 -249.4 58.32 -246 59 C-246.495 31.28 -246.495 31.28 -247 3 C-224.33333333 5.66666667 -224.33333333 5.66666667 -222 8 C-221.625 10.375 -221.625 10.375 -222 13 C-222.804375 13.433125 -223.60875 13.86625 -224.4375 14.3125 C-225.283125 14.869375 -226.12875 15.42625 -227 16 C-228.64463051 24.25379785 -228.33917238 32.85434875 -228.55224609 41.24487305 C-228.60424536 43.24016596 -228.66143522 45.23532145 -228.71875 47.23046875 C-228.74904297 48.41020264 -228.77933594 49.58993652 -228.81054688 50.80541992 C-228.97870123 53.64085775 -229.35853517 56.23839003 -230 59 C-224.47379396 59.02973561 -224.47379396 59.02973561 -219.9453125 56.1875 C-218.21404447 54.17606827 -216.58312568 52.12918932 -215 50 C-214.67 49.67 -214.34 49.34 -214 49 C-207.78847413 49 -205.01479915 51.2695846 -200.6015625 55.50390625 C-199.24348069 57.11377262 -199.24348069 57.11377262 -198 57 C-193.23605505 36.62274896 -193.23605505 36.62274896 -197.5625 17.3125 C-198.02140625 16.73113281 -198.4803125 16.14976562 -198.953125 15.55078125 C-200 14 -200 14 -199.8125 11 C-199.544375 10.34 -199.27625 9.68 -199 9 C-193.20274102 8.53621928 -190.46331356 9.2653907 -186 13 C-179.54454484 19.38024597 -173.99474032 25.64122032 -173.4375 35 C-173.62921613 39.54641115 -174.95595368 41.79478201 -177.55859375 45.3984375 C-179.62432308 49.12682702 -180.64237616 53.0244526 -181.75 57.125 C-181.96035889 57.90166016 -182.17071777 58.67832031 -182.38745117 59.47851562 C-184.37335551 67.0615025 -185.1391434 74.04558206 -185.0625 81.875 C-185.05573242 83.19371094 -185.05573242 83.19371094 -185.04882812 84.5390625 C-185.03712337 86.69273803 -185.01919069 88.84637817 -185 91 C-184.56300781 89.63403687 -184.56300781 89.63403687 -184.1171875 88.24047852 C-168.34423884 39.12036171 -168.34423884 39.12036171 -156.2578125 30.80078125 C-151.02765188 28.1374967 -145.21548556 28.09362152 -139.671875 29.65625 C-130.38656384 33.31984216 -125.48729435 39.75705919 -121.3515625 48.63671875 C-116.94320626 59.60664571 -115.33216129 70.29131466 -115 82 C-106.7880119 82.36678768 -106.7880119 82.36678768 -99.56640625 79.1171875 C-97.54930389 76.92679428 -97.54930389 76.92679428 -95.87890625 74.6171875 C-94 73 -94 73 -91.140625 72.9921875 C-87.44947409 74.1766613 -85.17165453 75.7842964 -82.1875 78.25 C-80.75470703 79.40242188 -80.75470703 79.40242188 -79.29296875 80.578125 C-77 83 -77 83 -75.86328125 85.484375 C-75.93095703 86.72960937 -75.93095703 86.72960937 -76 88 C-77.22553589 88.99 -77.22553589 88.99 -78.47583008 90 C-82.14429171 94.36000159 -81.65161684 97.98996235 -81.5234375 103.515625 C-81.51873444 104.52719666 -81.51403137 105.53876831 -81.50918579 106.58099365 C-81.48786791 109.80469363 -81.43123641 113.0267402 -81.375 116.25 C-81.35849201 118.43488042 -81.34414417 120.6197783 -81.33203125 122.8046875 C-81.29806371 126.78439026 -81.26351913 130.76392989 -81.19287109 134.74316406 C-81.18001068 135.54304749 -81.16715027 136.34293091 -81.15390015 137.16705322 C-81.19705401 139.01810085 -81.19705401 139.01810085 -80 140 C-65.209422 108.38306219 -65.01188084 75.27477216 -64 41 C-71.92 41.495 -71.92 41.495 -80 42 C-80.66 39.03 -81.32 36.06 -82 33 C-73.75 33.66 -65.5 34.32 -57 35 C-57.66 24.11 -58.32 13.22 -59 2 C-53.1898344 2 -48.74958002 2.21360881 -43.1875 3.3125 C-41.90230469 3.55613281 -40.61710937 3.79976563 -39.29296875 4.05078125 C-36.19141624 4.94482308 -34.802682 5.37362061 -33 8 C-33.16133896 10.58142336 -33.79859974 11.75481707 -35.4375 13.75 C-37 15 -37 15 -39 15 C-39 21.6 -39 28.2 -39 35 C-34.01103059 33.07714042 -34.01103059 33.07714042 -31 29.4375 C-29.21450804 27.28040819 -28.10129046 26.05597631 -25.625 24.6875 C-20.12148239 25.34268067 -16.10108328 29.7577522 -12.5625 33.75 C-11 36 -11 36 -10 38 C-5.78598385 25.45627858 -2.47477187 12.99983105 0 0 Z M1 3 C0.78085937 4.23492187 0.56171875 5.46984375 0.3359375 6.7421875 C-2.62029112 22.78754934 -6.75289216 37.64787945 -14.54785156 52.05175781 C-15.41748401 53.67423149 -16.21607469 55.33442427 -17 57 C-16.67 57.66 -16.34 58.32 -16 59 C-13.5748932 56.63349244 -11.16153387 54.25533103 -8.75 51.875 C-8.06808594 51.20984375 -7.38617187 50.5446875 -6.68359375 49.859375 C-6.01972656 49.20195312 -5.35585938 48.54453125 -4.671875 47.8671875 C-4.0644043 47.27019043 -3.45693359 46.67319336 -2.83105469 46.05810547 C-0.81325687 43.95957847 -0.81325687 43.95957847 0.65820312 40.80859375 C3.19648931 37.76434393 3.44876405 37.57814572 7.12597656 37.22705078 C8.79706038 37.18620393 10.46913674 37.17751981 12.140625 37.1953125 C13.46389801 37.17475296 13.46389801 37.17475296 14.81390381 37.15377808 C17.62645295 37.11644225 20.43723799 37.12019515 23.25 37.125 C25.15888181 37.10687566 27.06774021 37.08607379 28.9765625 37.0625 C33.65133775 37.01061564 38.32495259 36.99557167 43 37 C42.98839844 36.30132812 42.97679687 35.60265625 42.96484375 34.8828125 C42.95582031 33.97273438 42.94679688 33.06265625 42.9375 32.125 C42.92589844 31.22007812 42.91429687 30.31515625 42.90234375 29.3828125 C43 27 43 27 44 25 C41.32099578 22.78584077 41.32099578 22.78584077 38.98828125 23.09375 C36.29275597 24.32235877 35.70090166 25.97633285 34.1875 28.5 C31.83961086 31.36560551 30.04708242 32.79206736 26.38134766 33.52001953 C19.60346273 34.18563612 12.803228 34.17493537 6 34 C7.45687658 31.39500876 8.91543651 28.79098518 10.375 26.1875 C10.7875 25.44951172 11.2 24.71152344 11.625 23.95117188 C12.22441406 22.88286133 12.22441406 22.88286133 12.8359375 21.79296875 C13.20251465 21.1383667 13.5690918 20.48376465 13.94677734 19.80932617 C16.52404332 15.38185326 18.1022393 14.38414976 23 13 C23 12.01 23 11.02 23 10 C21.12616097 9.20558928 19.25087114 8.41460026 17.375 7.625 C16.33085938 7.18414062 15.28671875 6.74328125 14.2109375 6.2890625 C9.61244968 4.44295425 5.99336461 3 1 3 Z M-57 4 C-56.67 14.56 -56.34 25.12 -56 36 C-67.385 35.505 -67.385 35.505 -79 35 C-78.67 36.65 -78.34 38.3 -78 40 C-70.08 39.505 -70.08 39.505 -62 39 C-62.21598806 45.27296011 -62.44673703 51.54516521 -62.68969727 57.81713867 C-62.77000226 59.93939385 -62.84665112 62.06179134 -62.91918945 64.18432617 C-63.77242641 88.98704194 -65.96880297 112.60172937 -75.6328125 135.66015625 C-76.89432788 138.7418581 -77.98654227 141.82932509 -79 145 C-77.30577403 143.35560421 -75.64718995 141.6907664 -74 140 C-72.63875 138.6078125 -72.63875 138.6078125 -71.25 137.1875 C-55.85576863 118.84966883 -50.1001931 93.37910346 -49 70 C-44.05 70 -39.1 70 -34 70 C-34.33 72.31 -34.66 74.62 -35 77 C-35.18173193 79.44477101 -35.33531257 81.89175195 -35.46484375 84.33984375 C-35.54348794 85.74805424 -35.62226861 87.15625712 -35.70117188 88.56445312 C-35.81938047 90.73565617 -35.9358995 92.90692317 -36.04956055 95.07836914 C-37.89195076 129.89195076 -37.89195076 129.89195076 -43 135 C-44.34267413 135.08631874 -45.68974322 135.10706473 -47.03515625 135.09765625 C-47.84404297 135.09443359 -48.65292969 135.09121094 -49.48632812 135.08789062 C-50.33646484 135.07951172 -51.18660156 135.07113281 -52.0625 135.0625 C-52.91650391 135.05798828 -53.77050781 135.05347656 -54.65039062 135.04882812 C-56.76695663 135.03700373 -58.88348685 135.01906769 -61 135 C-60.23042969 135.61488281 -59.46085937 136.22976563 -58.66796875 136.86328125 C-52.42103135 141.86631896 -50.14640987 145.14623687 -49 153 C-43.06077453 153.49493546 -38.88892452 152.50770397 -34 149 C-25.33020791 140.70121253 -24.54331468 128.45313373 -23.4375 117.125 C-23.31310547 115.93277832 -23.18871094 114.74055664 -23.06054688 113.51220703 C-22.39994155 106.94637199 -21.86862909 100.38302879 -21.47265625 93.796875 C-21.43160263 93.1299765 -21.39054901 92.463078 -21.34825134 91.77597046 C-21.15129688 88.54021577 -20.97336667 85.30514182 -20.82202148 82.06689453 C-20.75700439 80.90786621 -20.6919873 79.74883789 -20.625 78.5546875 C-20.57601562 77.52843262 -20.52703125 76.50217773 -20.4765625 75.44482422 C-20.24066406 74.23463623 -20.24066406 74.23463623 -20 73 C-19.01 72.34 -18.02 71.68 -17 71 C-17.44787324 66.35026146 -19.02185597 64.62972532 -22.5625 61.6875 C-23.80193359 60.64142578 -23.80193359 60.64142578 -25.06640625 59.57421875 C-25.70449219 59.05472656 -26.34257813 58.53523438 -27 58 C-30.1661811 59.38855824 -31.1984848 60.24314389 -33.5 63.0625 C-37.20254995 67.00485241 -41.42267062 66.8037471 -46.5859375 66.9921875 C-47.78089844 66.99605469 -47.78089844 66.99605469 -49 67 C-48.83701416 66.45633789 -48.67402832 65.91267578 -48.50610352 65.35253906 C-47.91950781 62.62584529 -47.88750752 60.14858707 -47.90234375 57.359375 C-47.90484131 56.39483398 -47.90733887 55.43029297 -47.90991211 54.43652344 C-47.91901611 53.2199707 -47.92812012 52.00341797 -47.9375 50.75 C-47.9684375 44.93375 -47.9684375 44.93375 -48 39 C-36.45 39 -24.9 39 -13 39 C-14.86966939 34.32582653 -15.5051806 33.16509338 -19.125 30.1875 C-19.84945312 29.58292969 -20.57390625 28.97835937 -21.3203125 28.35546875 C-22.15175781 27.68451172 -22.15175781 27.68451172 -23 27 C-26.69929408 28.05694117 -27.93967535 28.9201106 -30.3125 32.0625 C-33.92963325 36.01611076 -35.80329345 35.57091414 -41 36 C-40.97712857 32.43609328 -40.8997265 28.87536684 -40.8125 25.3125 C-40.80669922 24.30509766 -40.80089844 23.29769531 -40.79492188 22.25976562 C-40.54631696 13.89006696 -40.54631696 13.89006696 -37.44921875 10.79296875 C-36.64097656 10.20128906 -35.83273437 9.60960937 -35 9 C-41.57492313 4.1783897 -49.11055105 4 -57 4 Z M-245 5 C-245 23.15 -245 41.3 -245 60 C-248.96 59.67 -252.92 59.34 -257 59 C-256.67 60.65 -256.34 62.3 -256 64 C-250.555 63.505 -250.555 63.505 -245 63 C-247.33010736 103.62358218 -252.40068528 144.63982393 -276 179 C-275.67 179.66 -275.34 180.32 -275 181 C-254.21313491 161.63581009 -241.97025593 136.94678991 -237 109 C-237 108.01 -237 107.02 -237 106 C-236.34 106 -235.68 106 -235 106 C-235.06983093 106.58102478 -235.13966187 107.16204956 -235.21160889 107.76068115 C-235.96806926 114.56681487 -236.17586337 121.29614697 -236.203125 128.140625 C-236.21167511 129.82934723 -236.21167511 129.82934723 -236.22039795 131.55218506 C-236.22978635 133.91531449 -236.23635719 136.27845666 -236.24023438 138.64160156 C-236.25000943 142.25348345 -236.28111906 145.86481205 -236.3125 149.4765625 C-236.31902477 151.78124665 -236.3242773 154.08593483 -236.328125 156.390625 C-236.3404718 157.46572327 -236.3528186 158.54082153 -236.36553955 159.64849854 C-236.34910959 165.16885507 -236.20612218 169.27488323 -233 174 C-227.3935211 178.51633022 -219.93416015 178.50080046 -213 178 C-207.23533878 177.2254962 -202.42985884 175.98687295 -198 172 C-196.92813452 168.78440356 -196.67713644 166.96859067 -197.75 163.75 C-199.05104872 161.70982835 -199.05104872 161.70982835 -202 160 C-202.34057617 157.75341797 -202.34057617 157.75341797 -202.29296875 154.9921875 C-202.28330078 154.00605469 -202.27363281 153.01992188 -202.26367188 152.00390625 C-202.23853516 150.97136719 -202.21339844 149.93882812 -202.1875 148.875 C-202.17396484 147.83472656 -202.16042969 146.79445313 -202.14648438 145.72265625 C-202.11105228 143.14792373 -202.06165221 140.5742167 -202 138 C-203.71941116 140.57911674 -204.49701823 142.21021479 -205.3671875 145.08984375 C-205.61339844 145.87423828 -205.85960937 146.65863281 -206.11328125 147.46679688 C-206.61931929 149.10817666 -207.11936853 150.75141528 -207.61328125 152.39648438 C-210.25220819 160.7302977 -210.25220819 160.7302977 -214 163 C-216.97 163 -219.94 163 -223 163 C-222.67 139.57 -222.34 116.14 -222 92 C-220.02 91.01 -220.02 91.01 -218 90 C-218 89.01 -218 88.02 -218 87 C-219.91512272 86.49411853 -221.83216922 85.99551609 -223.75 85.5 C-224.81734375 85.2215625 -225.8846875 84.943125 -226.984375 84.65625 C-230.13705302 83.85824011 -230.13705302 83.85824011 -234 84 C-233.67 83.34 -233.34 82.68 -233 82 C-232.76807135 80.48530552 -232.58784762 78.96245438 -232.4375 77.4375 C-232.35371094 76.63183594 -232.26992188 75.82617188 -232.18359375 74.99609375 C-231.93899283 71.00441483 -232 66.99916619 -232 63 C-220.78 63 -209.56 63 -198 63 C-199.91860784 59.16278433 -201.29225773 57.56523256 -204.4375 54.8125 C-205.21996094 54.11769531 -206.00242187 53.42289063 -206.80859375 52.70703125 C-208.97657558 50.82252045 -208.97657558 50.82252045 -212 50 C-213.14888283 51.12188559 -214.29401137 52.24761684 -215.4375 53.375 C-216.07558594 54.00148437 -216.71367187 54.62796875 -217.37109375 55.2734375 C-219.07882176 56.91723061 -219.07882176 56.91723061 -220 59 C-222.72265625 59.4140625 -222.72265625 59.4140625 -226.0625 59.625 C-227.16722656 59.69976562 -228.27195312 59.77453125 -229.41015625 59.8515625 C-230.26480469 59.90054688 -231.11945313 59.94953125 -232 60 C-231.67 59.01 -231.34 58.02 -231 57 C-230.88409789 55.62014255 -230.81677263 54.23584804 -230.78222656 52.8515625 C-230.74648529 51.60511963 -230.74648529 51.60511963 -230.71002197 50.33349609 C-230.68712097 49.43969238 -230.66421997 48.54588867 -230.640625 47.625 C-230.57673437 45.7343336 -230.51159188 43.84370917 -230.4453125 41.953125 C-230.34393278 38.97078952 -230.24973177 35.98903464 -230.17675781 33.00585938 C-230.10361638 30.12769664 -229.99980217 27.25199156 -229.890625 24.375 C-229.87582092 23.48119629 -229.86101685 22.58739258 -229.84576416 21.66650391 C-229.74346554 19.33348465 -229.62437149 17.25074071 -229 15 C-226.44433594 13.1015625 -226.44433594 13.1015625 -224 12 C-224 11.01 -224 10.02 -224 9 C-230.60460948 6.11324213 -230.60460948 6.11324213 -245 5 Z M-383.8046875 9.57421875 C-384.82949219 10.62029297 -384.82949219 10.62029297 -385.875 11.6875 C-386.89207031 12.71423828 -386.89207031 12.71423828 -387.9296875 13.76171875 C-390.09965055 15.90551969 -390.09965055 15.90551969 -391.33221436 18.60441589 C-395.79297209 22.61003019 -400.97817178 21.65146585 -406.75488281 21.56762695 C-408.06244537 21.56835709 -409.37000793 21.56908722 -410.7171936 21.56983948 C-414.29983097 21.57127407 -417.88163131 21.54187889 -421.46407413 21.50696969 C-425.20897744 21.47571252 -428.95389995 21.47277598 -432.69891357 21.46684265 C-439.78924209 21.45130222 -446.87918513 21.41027143 -453.9693439 21.3600952 C-462.04177994 21.30420765 -470.1142344 21.27671678 -478.18681574 21.25161803 C-494.79143615 21.19935543 -511.39566888 21.11140972 -528 21 C-527.67 22.65 -527.34 24.3 -527 26 C-509.84 25.67 -492.68 25.34 -475 25 C-479.72594964 45.08528597 -479.72594964 45.08528597 -482.0625 51.625 C-482.4958667 52.84533936 -482.4958667 52.84533936 -482.93798828 54.09033203 C-493.97462569 84.1215734 -511.23914351 108.72341705 -534 131 C-533.34 131.33 -532.68 131.66 -532 132 C-529.81759602 131.00127275 -527.81703663 129.95437548 -525.75 128.75 C-525.1302832 128.39083496 -524.51056641 128.03166992 -523.87207031 127.66162109 C-513.41623289 121.42559287 -504.27252741 113.69665956 -495.890625 104.8984375 C-494 103 -494 103 -492 102 C-492.02545395 103.24241707 -492.02545395 103.24241707 -492.05142212 104.50993347 C-492.20962733 112.32247904 -492.35780604 120.13513697 -492.49477577 127.94808483 C-492.56554259 131.9646252 -492.64016002 135.98101646 -492.72363281 139.99731445 C-492.8040729 143.87455566 -492.87432578 147.75186088 -492.93757248 151.62941933 C-492.96346022 153.10742281 -492.99299421 154.58536715 -493.02626419 156.06322289 C-493.07230149 158.1361031 -493.10527115 160.2088163 -493.13525391 162.28198242 C-493.15746002 163.46112717 -493.17966614 164.64027191 -493.20254517 165.85514832 C-492.99788165 169.03289088 -492.46654061 171.18574677 -491 174 C-487.81345065 175.59327468 -484.46828976 175.39200976 -481 175 C-478.63706998 173.84367254 -476.85016245 172.85016245 -475 171 C-475 166.71 -475 162.42 -475 158 C-450.58 158 -426.16 158 -401 158 C-401 162.62 -401 167.24 -401 172 C-396.95924984 174.69383344 -393.74318059 174.54921038 -389 174 C-386.01755087 172.8646327 -386.01755087 172.8646327 -384 171 C-382.81581933 167.44745799 -382.92018506 164.70805306 -382.97827148 160.95825195 C-382.98787903 160.24580322 -382.99748657 159.53335449 -383.00738525 158.79931641 C-383.04035384 156.44553681 -383.08069422 154.09194406 -383.12109375 151.73828125 C-383.14539696 150.1058976 -383.16924043 148.47350705 -383.19264221 146.84111023 C-383.25546311 142.54531996 -383.32453542 138.24965198 -383.39489746 133.95397949 C-383.4655989 129.57028776 -383.53040504 125.18650934 -383.59570312 120.80273438 C-383.72468978 112.20172693 -383.86027887 103.60083973 -384 95 C-383.19820312 94.70738281 -382.39640625 94.41476563 -381.5703125 94.11328125 C-378.91994099 93.2553372 -378.91994099 93.2553372 -377.875 91.1875 C-377.7942984 88.76268236 -377.7942984 88.76268236 -380 86.625 C-380.99 85.75875 -381.98 84.8925 -383 84 C-383.86818359 83.19949219 -383.86818359 83.19949219 -384.75390625 82.3828125 C-388.7966781 78.51927826 -388.7966781 78.51927826 -394 77 C-395.89818119 78.88094782 -395.89818119 78.88094782 -397.73095703 81.37817383 C-401.83795095 85.68924814 -404.5627698 86.70772432 -410.49169922 87.0534668 C-413.43330903 87.09658798 -416.36425379 87.03052249 -419.3046875 86.94921875 C-420.87645196 86.93748656 -422.44824817 86.92947723 -424.02005005 86.92500305 C-427.29723215 86.90677272 -430.57217341 86.85976957 -433.84863281 86.78881836 C-438.04863923 86.69792949 -442.24729471 86.65511586 -446.44816399 86.63057232 C-450.46302335 86.60583492 -454.47756098 86.56076717 -458.4921875 86.51171875 C-459.25673122 86.50341223 -460.02127495 86.49510571 -460.80898666 86.48654747 C-462.96791964 86.4587066 -465.12607535 86.41679584 -467.28466797 86.36987305 C-468.51216766 86.34716843 -469.73966736 86.32446381 -471.00436401 86.30107117 C-474 86 -474 86 -477 84 C-476.45801402 80.55881919 -474.88712807 77.93766329 -473.11816406 74.97705078 C-469.09785082 68.24493816 -465.68348679 61.39690295 -462.75 54.125 C-462.44570068 53.38507813 -462.14140137 52.64515625 -461.82788086 51.8828125 C-458.50051069 43.38999379 -456.47447639 34.908115 -454 26 C-426.94 25.67 -399.88 25.34 -372 25 C-372 21.37 -372 17.74 -372 14 C-377.36060694 8.26514713 -377.36060694 8.26514713 -383.8046875 9.57421875 Z M-370 9 C-369.66711363 12.08580378 -369.38446006 13.61635275 -367.15234375 15.84375 C-365.67411053 16.94916603 -364.1949407 18.05333066 -362.71484375 19.15625 C-361 21 -361 21 -360.75390625 23.71875 C-360.83511719 24.4715625 -360.91632813 25.224375 -361 26 C-363.97 26.33 -366.94 26.66 -370 27 C-370.04933483 33.51447435 -370.08568851 40.02884063 -370.10986328 46.54345703 C-370.11993825 48.76092421 -370.13359859 50.97837805 -370.15087891 53.19580078 C-370.17506163 56.37796312 -370.18646797 59.55995024 -370.1953125 62.7421875 C-370.20563507 63.73805878 -370.21595764 64.73393005 -370.22659302 65.75997925 C-370.22681961 67.14118454 -370.22681961 67.14118454 -370.22705078 68.55029297 C-370.231492 69.3630368 -370.23593323 70.17578064 -370.24050903 71.01315308 C-370.1792112 73.23212675 -370.1792112 73.23212675 -368 75 C-363.66356399 75.31537716 -361.67346771 75.44897847 -358 73 C-357.74984127 69.41642759 -357.74984127 69.41642759 -358 66 C-355.69 66 -353.38 66 -351 66 C-351 93.06 -351 120.12 -351 148 C-355.455 148.99 -355.455 148.99 -360 150 C-359.93306789 142.38249369 -359.84328776 134.76550336 -359.73754883 127.1484375 C-359.70427568 124.55670301 -359.67625129 121.96489565 -359.65356445 119.37304688 C-359.62006325 115.64942336 -359.56774777 111.92646919 -359.51171875 108.203125 C-359.50532883 107.04258606 -359.4989389 105.88204712 -359.49235535 104.68634033 C-359.47256119 103.60552185 -359.45276703 102.52470337 -359.43237305 101.41113281 C-359.42126999 100.46071106 -359.41016693 99.51028931 -359.39872742 98.53106689 C-358.93678505 95.5987202 -357.94777611 94.1974703 -356 92 C-361.78356759 89.16974352 -365.15172686 88.76091924 -372 88 C-371.67 109.45 -371.34 130.9 -371 153 C-374.3 153.33 -377.6 153.66 -381 154 C-379.90711967 156.79657597 -378.80142741 159.58681951 -377.6875 162.375 C-377.37876953 163.1690625 -377.07003906 163.963125 -376.75195312 164.78125 C-376.44580078 165.54179687 -376.13964844 166.30234375 -375.82421875 167.0859375 C-375.54666748 167.7876709 -375.26911621 168.4894043 -374.9831543 169.21240234 C-373.99332241 171.33793392 -373.99332241 171.33793392 -371 173 C-370.84402344 172.10539063 -370.68804687 171.21078125 -370.52734375 170.2890625 C-368.32784474 165.55254545 -365.15831396 164.51750176 -360.5625 162.375 C-353.3548526 158.80305015 -346.42684245 154.98571533 -339.625 150.6875 C-338.83552979 150.19620605 -338.04605957 149.70491211 -337.23266602 149.19873047 C-332.97077202 146.48414243 -329.41228924 143.73176652 -326 140 C-327.43793392 140.31049726 -328.8753318 140.6234776 -330.3125 140.9375 C-331.11300781 141.11152344 -331.91351563 141.28554688 -332.73828125 141.46484375 C-335.145401 141.99886159 -335.145401 141.99886159 -338 143 C-338.33 131.12 -338.66 119.24 -339 107 C-332.07 107 -325.14 107 -318 107 C-319.75130704 102.62173239 -320.4370031 101.19838597 -323.625 98.1875 C-324.25664062 97.58292969 -324.88828125 96.97835937 -325.5390625 96.35546875 C-326.02117187 95.90816406 -326.50328125 95.46085937 -327 95 C-330.20138513 96.35260221 -331.71215241 97.63736305 -333.5625 100.5625 C-335.67311072 103.89103691 -335.67311072 103.89103691 -339 105 C-339 92.13 -339 79.26 -339 66 C-337.35 66 -335.7 66 -334 66 C-334.04125 66.94875 -334.0825 67.8975 -334.125 68.875 C-334.34973818 72.10244856 -334.34973818 72.10244856 -332 74 C-326.86629645 74.6807825 -326.86629645 74.6807825 -322.39303589 72.75753784 C-320.61068884 70.50882164 -320.66104512 69.35958833 -320.73876953 66.51611328 C-320.75513458 65.61152374 -320.77149963 64.7069342 -320.7883606 63.77493286 C-320.81952972 62.79990814 -320.85069885 61.82488342 -320.8828125 60.8203125 C-320.91588367 58.75651867 -320.94841909 56.6927162 -320.98046875 54.62890625 C-321.04877691 51.37419452 -321.12513455 48.1199825 -321.21240234 44.86572266 C-321.29094159 41.72558069 -321.33854777 38.5860977 -321.3828125 35.4453125 C-321.41803009 34.47433624 -321.45324768 33.50335999 -321.48953247 32.50296021 C-321.5628167 25.86784026 -321.5628167 25.86784026 -319.86029053 23.24261475 C-318.47607422 21.84716797 -318.47607422 21.84716797 -316 20 C-318.26900223 15.46199554 -321.56268219 11.53833664 -326 9 C-330.24897217 9.38038418 -332.26664273 11.88700977 -335 15 C-335 15.66 -335 16.32 -335 17 C-348.06075868 17.14499718 -357.17410973 16.77920445 -368 9 C-368.66 9 -369.32 9 -370 9 Z M-370 16 C-370 18.97 -370 21.94 -370 25 C-367.36 25 -364.72 25 -362 25 C-362.38520564 22.46089803 -362.70097943 21.27248877 -364.62890625 19.515625 C-365.26699219 19.09796875 -365.90507812 18.6803125 -366.5625 18.25 C-367.696875 17.5075 -368.83125 16.765 -370 16 Z M89.6875 27.75 C80.51843661 33.6087822 68.72858413 35.3008501 58.00390625 35.7265625 C55.77127478 35.82538255 55.77127478 35.82538255 54 38 C51.67724823 38.40047444 49.34260643 38.7397104 47 39 C48.49478114 42.80489745 50.69442214 44.66190835 54 47 C56.76565382 47.92188461 58.38283702 48.11785222 61.23046875 48.09765625 C62.03291016 48.09443359 62.83535156 48.09121094 63.66210938 48.08789062 C64.49548828 48.07951172 65.32886719 48.07113281 66.1875 48.0625 C67.4549707 48.05573242 67.4549707 48.05573242 68.74804688 48.04882812 C70.83206155 48.03705403 72.91603977 48.0191189 75 48 C69.80425532 57.64361702 69.80425532 57.64361702 67.03125 62.3203125 C60.76970186 72.8926957 54.41974399 84.62794521 53 97 C54.26352052 99.32511472 54.26352052 99.32511472 56 101 C56 102.32 56 103.64 56 105 C54.35 105 52.7 105 51 105 C48.80158241 123.80432188 50.6453787 140.63323863 61.73046875 156.47265625 C68.41313527 164.65395279 76.76217014 168.2307527 86.8125 170.6875 C101.36617261 172.11433065 114.90439053 169.8248963 126.78515625 160.91015625 C141.88456701 148.09538811 148.86382877 129.75628544 150.78613281 110.39160156 C151.6324276 96.97068012 151.20671026 83.43828689 151 70 C151.99 70 152.98 70 154 70 C154.1134375 70.69222656 154.226875 71.38445312 154.34375 72.09765625 C157.88720087 87.76898955 169.46147721 107.15739485 183 116 C186.66890375 116.53504846 188.29044442 116.5177838 191.3125 114.3125 C193.28407277 111.61071509 193.92382797 110.35156912 194 107 C192.06019074 100.14600728 189.13033358 96.61544467 183.9375 91.875 C166.83340788 75.46090367 155.18296039 55.60368557 154.40625 31.4609375 C153.93362957 28.59794833 153.28576598 27.7267772 151 26 C147.494806 24.67371038 146.25712127 24.89121792 142.75 26.375 C140.17352165 27.74346467 140.17352165 27.74346467 139 29 C138.62909352 34.33430959 139.59909149 38.61449693 141.4375 43.5625 C149.7994126 66.58703805 146.02104131 97.14434465 138 120 C137.63003906 121.05574219 137.26007813 122.11148438 136.87890625 123.19921875 C132.37190624 134.97652697 124.72366908 144.86203699 113.07421875 150.1875 C102.48294638 154.33624699 89.82984135 154.67756093 79.0859375 150.9296875 C76.09877844 149.59833196 73.63779334 147.93009269 71 146 C69.515 145.505 69.515 145.505 68 145 C66.9375 143.16796875 66.9375 143.16796875 66 141 C65.67 140.39800781 65.34 139.79601562 65 139.17578125 C57.52621451 125.25001689 58.98574124 109.86333005 63.31982422 95.13476562 C69.65416155 75.25413188 84.36372569 50.92540353 103.30078125 40.765625 C104.02652344 40.43046875 104.75226562 40.0953125 105.5 39.75 C109.03236603 38.43490631 109.03236603 38.43490631 109.88671875 36.1171875 C110.19639223 33.94939363 110.19639223 33.94939363 108.92578125 32.1484375 C108.39339844 31.56320313 107.86101563 30.97796875 107.3125 30.375 C106.53326172 29.48941406 106.53326172 29.48941406 105.73828125 28.5859375 C103.13970703 26.2151035 100.81626205 25.15547849 97.375 24.5 C93.83364835 25.02464469 92.59128498 25.79770993 89.6875 27.75 Z M-453 27 C-455.64 35.58 -458.28 44.16 -461 53 C-462.83356008 57.40759636 -464.57601349 61.49572249 -466.75 65.6875 C-467.20503906 66.60853516 -467.66007812 67.52957031 -468.12890625 68.47851562 C-470.58992039 73.41827456 -473.21183417 78.23796911 -476 83 C-472.41852297 85.38765135 -470.72941788 85.28870662 -466.46826172 85.36987305 C-465.80928391 85.38462173 -465.15030609 85.39937042 -464.47135925 85.41456604 C-462.29081723 85.45907627 -460.11054319 85.48731765 -457.9296875 85.51171875 C-457.18242527 85.52111795 -456.43516304 85.53051716 -455.6652565 85.54020119 C-451.70622561 85.58777147 -447.74732705 85.62144814 -443.78808594 85.64526367 C-439.71522247 85.67290411 -435.64506734 85.75200177 -431.5731945 85.84280682 C-428.42797218 85.90288037 -425.28338216 85.92255556 -422.13763809 85.93177223 C-420.63769155 85.94329807 -419.13777615 85.96999442 -417.6383934 86.01270103 C-408.93200156 86.39713239 -408.93200156 86.39713239 -401.2276001 82.8968811 C-398.86588605 80.45255766 -398.86588605 80.45255766 -396.99685669 77.83772278 C-395 76 -395 76 -391.92623901 76.11747742 C-388.50383629 77.1496377 -386.4838397 78.58561891 -383.75 80.875 C-382.89921875 81.57367188 -382.0484375 82.27234375 -381.171875 82.9921875 C-379 85 -379 85 -377 88 C-377.125 91 -377.125 91 -378 94 C-378.66868103 94.44571854 -379.33736206 94.89143707 -380.02630615 95.35066223 C-382.23653117 96.84606178 -382.23653117 96.84606178 -382.48101807 99.44877625 C-382.47213562 100.4191835 -382.46325317 101.38959076 -382.45410156 102.3894043 C-382.45364838 104.04077644 -382.45364838 104.04077644 -382.45318604 105.72550964 C-382.43254089 106.91308365 -382.41189575 108.10065765 -382.390625 109.32421875 C-382.38213531 111.14902519 -382.38213531 111.14902519 -382.37347412 113.01069641 C-382.35105034 116.90336144 -382.30084013 120.7951123 -382.25 124.6875 C-382.22994289 127.32355443 -382.21169075 129.95962327 -382.1953125 132.59570312 C-382.15116572 139.06411498 -382.08419287 145.53199219 -382 152 C-377.34947128 152.26932521 -377.34947128 152.26932521 -373 151 C-373 129.55 -373 108.1 -373 86 C-366.30677443 87.33864511 -361.13634411 88.50000796 -355 91 C-355.57344937 93.86724686 -355.8614515 94.8614515 -358 97 C-358.292194 99.22358474 -358.292194 99.22358474 -358.22705078 101.81689453 C-358.22689972 102.81778107 -358.22674866 103.8186676 -358.22659302 104.84988403 C-358.21627045 105.93325043 -358.20594788 107.01661682 -358.1953125 108.1328125 C-358.19106766 109.79327103 -358.19106766 109.79327103 -358.18673706 111.48727417 C-358.17551519 115.03329137 -358.15040691 118.57905875 -358.125 122.125 C-358.1149728 124.52473594 -358.1058465 126.92447583 -358.09765625 129.32421875 C-358.07556932 135.21623151 -358.04207207 141.10809791 -358 147 C-356.35 146.67 -354.7 146.34 -353 146 C-353 120.26 -353 94.52 -353 68 C-353.99 68 -354.98 68 -356 68 C-356.268125 69.134375 -356.53625 70.26875 -356.8125 71.4375 C-357.4003125 73.2009375 -357.4003125 73.2009375 -358 75 C-361.92296433 76.30765478 -364.86002433 76.1971417 -369 76 C-371.45496426 73.54503574 -371.26466611 72.83581235 -371.31884766 69.45849609 C-371.33890869 68.50450928 -371.35896973 67.55052246 -371.37963867 66.56762695 C-371.39099854 65.56304443 -371.4023584 64.55846191 -371.4140625 63.5234375 C-371.43170654 62.60151611 -371.44935059 61.67959473 -371.4675293 60.72973633 C-371.53070439 57.27833659 -371.57681632 53.82664158 -371.625 50.375 C-371.74875 42.66125 -371.8725 34.9475 -372 27 C-398.73 27 -425.46 27 -453 27 Z M44 28 C43.73067479 32.65052872 43.73067479 32.65052872 45 37 C47.97 37 50.94 37 54 37 C53.11979913 34.78940459 53.11979913 34.78940459 50.6875 33.625 C48.01605453 32.00970739 46.11790496 30.27478681 44 28 Z M-198 11 C-196.96025308 13.7193381 -195.86612301 16.24172235 -194.453125 18.79296875 C-189.36300115 30.02681736 -194.16133931 45.99278355 -196.02734375 57.64453125 C-197.60942045 67.74392814 -198.20580607 77.58712937 -198.25 87.8125 C-198.270625 88.99392578 -198.29125 90.17535156 -198.3125 91.39257812 C-198.36449614 103.25419711 -197.09974758 114.78231851 -189 124 C-185.76746204 126.15502531 -184.74849077 126.46856135 -181 126 C-179.26470323 124.80504833 -179.26470323 124.80504833 -178 123 C-177.68380748 120.92544156 -177.68380748 120.92544156 -177.91796875 118.625 C-177.95921875 117.73627197 -178.00046875 116.84754395 -178.04296875 115.93188477 C-178.09066406 114.96436279 -178.13835937 113.99684082 -178.1875 113 C-178.60838995 94.59629469 -173.59037884 77.19051756 -167.9375 59.8125 C-167.62167969 58.83933838 -167.30585938 57.86617676 -166.98046875 56.86352539 C-164.65942227 50.09004114 -162.16806656 43.20387239 -156.125 39 C-151.91397038 37.65247052 -148.16025343 37.18527585 -143.94921875 38.7734375 C-138.91642376 41.94036661 -137.28793814 48.41534419 -136.015625 53.9375 C-130.65362837 81.03797506 -131.21232941 114.32720355 -146.83203125 138.03515625 C-150.23976482 142.69546216 -153.92696448 146.91287093 -158 151 C-158.66257812 151.68578125 -159.32515625 152.3715625 -160.0078125 153.078125 C-169.4144382 162.16285096 -182.06870024 167.96964268 -194 173 C-193.67 173.66 -193.34 174.32 -193 175 C-174.51041693 172.06514554 -157.14180311 164.34995671 -143 152 C-142.34902344 151.443125 -141.69804687 150.88625 -141.02734375 150.3125 C-125.65424344 136.13134981 -117.94109045 116.30788084 -116.8203125 95.6953125 C-116.81398795 93.46274703 -116.89380726 91.23004746 -117 89 C-118.98 89.33 -120.96 89.66 -123 90 C-123.66 86.7 -124.32 83.4 -125 80 C-122.36 80.66 -119.72 81.32 -117 82 C-116.69695554 67.64526262 -119.71243645 51.41043522 -129 40 C-134.3538468 34.68003831 -138.66255005 31.05419199 -146.375 30.625 C-152.66138445 30.80222809 -156.71812442 33.41235922 -161 37.875 C-173.18888144 53.36770983 -178.65351022 75.37799469 -184 94 C-184.99 94 -185.98 94 -187 94 C-187.53516639 82.62647912 -187.45997758 71.80032146 -184.75 60.6875 C-184.54544189 59.84807861 -184.34088379 59.00865723 -184.13012695 58.14379883 C-182.33332284 51.3417574 -179.91481174 44.87221761 -176 39 C-175.12850992 31.90358074 -177.0844274 26.92019589 -181 21 C-184.31895102 17.12573811 -187.75384128 13.83077248 -192 11 C-195.12521833 10.83300768 -195.12521833 10.83300768 -198 11 Z M-159.5546875 43.7421875 C-171.97948436 63.81301319 -178.31958148 92.53877873 -176.95483398 115.84326172 C-176.62398383 122.44465304 -176.62398383 122.44465304 -178.77734375 125.625 C-181 127 -181 127 -184.4375 127.0625 C-189.33078637 125.6030988 -191.54101237 123.47723942 -194.125 119.08984375 C-199.8874203 107.41670557 -199.26217372 94.42433391 -199.125 81.75 C-199.114943 80.11849512 -199.10582199 78.48698419 -199.09765625 76.85546875 C-199.07759483 72.90336952 -199.03841164 68.95213121 -199 65 C-209.23 65 -219.46 65 -230 65 C-230.66 70.61 -231.32 76.22 -232 82 C-226.72 83.32 -221.44 84.64 -216 86 C-216.495 88.475 -216.495 88.475 -217 91 C-217.83359039 91.46679672 -218.66718079 91.93359344 -219.52603149 92.41453552 C-220.7506459 93.19934044 -220.7506459 93.19934044 -222 94 C-222.7334855 96.93966809 -222.7334855 96.93966809 -222.58349609 100.36743164 C-222.58777115 102.33946312 -222.58777115 102.33946312 -222.59213257 104.35133362 C-222.56991178 105.78761847 -222.54699678 107.22389273 -222.5234375 108.66015625 C-222.51664838 110.1308056 -222.511926 111.60146583 -222.50918579 113.0721283 C-222.49850683 116.15330588 -222.47180588 119.23375821 -222.43212891 122.31469727 C-222.38121668 126.26823533 -222.35611504 130.22135687 -222.34119225 134.17517948 C-222.32641479 137.94106309 -222.30118281 141.70684843 -222.2734375 145.47265625 C-222.26852673 146.19359026 -222.26361595 146.91452427 -222.25855637 147.65730476 C-222.24230812 149.69224373 -222.21779277 151.72711167 -222.19287109 153.76196289 C-222.18001068 154.92095596 -222.16715027 156.07994904 -222.15390015 157.27406311 C-222.1824958 159.96507967 -222.1824958 159.96507967 -221 162 C-217.66857722 162.50125283 -217.66857722 162.50125283 -214 162 C-210.64325293 157.86423427 -208.91047417 153.47324918 -207.375 148.4375 C-206.04960997 144.23064494 -204.70419823 140.07287742 -203 136 C-202.01 136 -201.02 136 -200 136 C-200.16298584 136.5662207 -200.32597168 137.13244141 -200.49389648 137.71582031 C-201.01684172 140.07601117 -201.11396742 142.13282157 -201.09765625 144.546875 C-201.09282227 145.81337891 -201.09282227 145.81337891 -201.08789062 147.10546875 C-201.07951172 147.97816406 -201.07113281 148.85085938 -201.0625 149.75 C-201.05798828 150.63816406 -201.05347656 151.52632813 -201.04882812 152.44140625 C-201.037074 154.62767329 -201.02064249 156.81380179 -201 159 C-200.35256836 159.27634277 -199.70513672 159.55268555 -199.03808594 159.83740234 C-198.36551758 160.22105957 -197.69294922 160.6047168 -197 161 C-196.390625 163.6015625 -196.390625 163.6015625 -196.25 166.625 C-196.19328125 167.62789062 -196.1365625 168.63078125 -196.078125 169.6640625 C-196.05234375 170.43492187 -196.0265625 171.20578125 -196 172 C-180.94073688 166.62169174 -168.42277085 159.40280097 -157 148 C-155.95585937 146.97326172 -155.95585937 146.97326172 -154.890625 145.92578125 C-138.37279838 128.60767233 -134.56270042 106.35645678 -134.6875 83.1875 C-134.69023422 82.13341949 -134.69023422 82.13341949 -134.69302368 81.05804443 C-134.61966289 59.94431004 -134.61966289 59.94431004 -143 41 C-149.00205684 37.23981815 -154.89687628 38.5226302 -159.5546875 43.7421875 Z M-0.61328125 43.3828125 C-1.45763173 44.89566475 -2.26020791 46.43336114 -3 48 C-5.21587598 50.83139708 -7.39246948 53.52284601 -10 56 C-3.70202685 58.38222479 2.15545192 58.47679041 8.83056641 58.53540039 C10.86446838 58.5623604 12.89318318 58.6373632 14.92578125 58.71289062 C23.55573395 58.87111327 23.55573395 58.87111327 30.6328125 54.46484375 C31.45483154 53.49792603 31.45483154 53.49792603 32.29345703 52.51147461 C34 51 34 51 36.54541016 50.67578125 C41.82241949 51.37280417 45.67330498 56.12090175 49 60 C50.06617977 62.65104158 50.12313771 64.1062638 50 67 C49.443125 67.13535156 48.88625 67.27070313 48.3125 67.41015625 C42.61909199 69.01623587 39.07003914 71.29596282 34.796875 75.35546875 C32.71372773 77.26200136 30.41988472 78.56319345 28 80 C28 80.66 28 81.32 28 82 C28.99 82.495 28.99 82.495 30 83 C29.75 85.375 29.75 85.375 29 88 C27.68 88.66 26.36 89.32 25 90 C25 92.97 25 95.94 25 99 C28.20232099 99.67174175 28.20232099 99.67174175 32 99 C33.84952745 97.18248132 33.84952745 97.18248132 35.5 94.9375 C37.23828125 92.7265625 37.23828125 92.7265625 39 91 C43.80567332 90.75564373 46.40269176 91.93562632 50 95 C50.66 95 51.32 95 52 95 C52.30550781 93.94425781 52.61101563 92.88851562 52.92578125 91.80078125 C56.90231733 78.71515106 62.23026103 64.77939604 70.65551758 53.85302734 C72.19575487 52.111768 72.19575487 52.111768 72 50 C71.0821875 49.96261719 70.164375 49.92523438 69.21875 49.88671875 C55.92592593 49.17460317 55.92592593 49.17460317 50 46 C49.08029927 44.84294324 48.19829565 43.65524924 47.34936523 42.4453125 C44.96734616 39.5929996 43.46872907 38.49365366 39.75805664 38.0625 C38.14304098 38.00327903 36.52618279 37.98447813 34.91015625 38 C34.04740585 37.98855957 33.18465546 37.97711914 32.29576111 37.96533203 C30.47789982 37.95185353 28.65982779 37.9562652 26.84204102 37.97753906 C24.07113292 37.99993024 21.31095058 37.93709433 18.54101562 37.8671875 C7.72609807 37.42359624 7.72609807 37.42359624 -0.61328125 43.3828125 Z M-19.53515625 40.21875 C-20.28840683 40.24094604 -21.04165741 40.26314209 -21.81773376 40.28601074 C-24.23265992 40.35720312 -26.64757999 40.42859945 -29.0625 40.5 C-30.69596315 40.54819048 -32.32942668 40.59636774 -33.96289062 40.64453125 C-37.97526572 40.76284226 -41.98763255 40.88142872 -46 41 C-46.33 48.92 -46.66 56.84 -47 65 C-38.53941237 65.91923528 -38.53941237 65.91923528 -34.9375 62.625 C-32.80204923 60.2755746 -32.80204923 60.2755746 -33 58 C-30.10809318 57.15358825 -27.95268716 56.56595239 -25.13305664 57.85058594 C-23.42203776 58.90039062 -21.71101888 59.95019531 -20 61 C-18.67997444 58.44113496 -17.36886218 55.87832932 -16.0625 53.3125 C-15.68931641 52.59126953 -15.31613281 51.87003906 -14.93164062 51.12695312 C-13.06034761 47.43494258 -11.51730444 44.16306904 -11 40 C-13.84445547 40 -16.69182629 40.13453822 -19.53515625 40.21875 Z M29 57 C28.67 57.66 28.34 58.32 28 59 C16.45 59 4.9 59 -7 59 C-6.67 60.65 -6.34 62.3 -6 64 C4.89 64 15.78 64 27 64 C25.35 67.96 23.7 71.92 22 76 C21.34 77.98 20.68 79.96 20 82 C16.37 81.34 12.74 80.68 9 80 C9 86.93 9 93.86 9 101 C-3.87 100.505 -3.87 100.505 -17 100 C-16.67 101.32 -16.34 102.64 -16 104 C-3.625 103.505 -3.625 103.505 9 103 C9 114.22 9 125.44 9 137 C1.74 137 -5.52 137 -13 137 C-10.33693215 138.77537857 -7.9147231 139.91664603 -5 141.1875 C-1.53338295 142.88800938 0.5422603 144.01156595 2.0625 147.625 C2.371875 148.73875 2.68125 149.8525 3 151 C3.33 151.99 3.66 152.98 4 154 C9.94567462 154.49547288 14.06204828 153.42436217 19 150 C24.4809573 144.23796796 24.01802551 136.85466622 23.98266602 129.29321289 C23.8771784 125.2978384 23.73021329 121.30560541 23.5625 117.3125 C23.5091209 115.91734223 23.45638241 114.52215979 23.40429688 113.12695312 C23.27580258 109.75105755 23.1387772 106.3754885 23 103 C31.91 103 40.82 103 50 103 C50.33 101.35 50.66 99.7 51 98 C46.85660172 93.65374611 46.85660172 93.65374611 41.4375 91.6875 C38.83698656 93.08777647 38.038821 94.17091329 36.3125 96.5 C34.38913468 98.96857123 33.46022084 99.8792524 30.39453125 100.68359375 C27.91350803 100.91105004 25.4904164 101.0344524 23 101 C23.03305502 99.06177404 23.10249905 97.12414332 23.1875 95.1875 C23.22230469 94.10855469 23.25710938 93.02960938 23.29296875 91.91796875 C24 89 24 89 26.55078125 87.11328125 C27.35902344 86.74589844 28.16726563 86.37851563 29 86 C28.67 85.01 28.34 84.02 28 83 C26.35 83 24.7 83 23 83 C25.67888178 80.11789271 28.7297176 77.8530791 31.875 75.5 C32.90367187 74.7265625 33.93234375 73.953125 34.9921875 73.15625 C39.54975168 69.88900919 43.62006644 67.62649154 49 66 C48.84953094 61.03452097 46.16908414 58.79416372 42.7890625 55.55078125 C36.78963398 50.35040325 34.50419233 51.97443309 29 57 Z M-314 54 C-314 70.83 -314 87.66 -314 105 C-311.15916359 106.42041821 -309.14522722 106.31452272 -306 106 C-303.5608859 104.31167984 -303.5608859 104.31167984 -302 102 C-302 101.01 -302 100.02 -302 99 C-299.69 99 -297.38 99 -295 99 C-295.33 120.12 -295.66 141.24 -296 163 C-301.61 162.67 -307.22 162.34 -313 162 C-307.88933209 165.5984196 -307.88933209 165.5984196 -302 167 C-301.79503906 167.78246094 -301.59007812 168.56492187 -301.37890625 169.37109375 C-300.97478516 170.88896484 -300.97478516 170.88896484 -300.5625 172.4375 C-300.29566406 173.44683594 -300.02882813 174.45617187 -299.75390625 175.49609375 C-299.24021923 177.91752001 -299.24021923 177.91752001 -298 179 C-291.52384262 178.78046924 -288.49095441 177.70480939 -284 173 C-281.93259745 168.97166785 -281.75652275 165.59102675 -281.77294922 161.09838867 C-281.77265717 160.42466217 -281.77236511 159.75093567 -281.77206421 159.05679321 C-281.77345062 156.84371786 -281.78897889 154.63098484 -281.8046875 152.41796875 C-281.80842009 150.87811975 -281.8112659 149.33826837 -281.81326294 147.79841614 C-281.82088006 143.75584292 -281.84051192 139.71341461 -281.8626709 135.67089844 C-281.88317082 131.5416866 -281.89227351 127.41245124 -281.90234375 123.28320312 C-281.92375974 115.18873577 -281.95787234 107.09438594 -282 99 C-280.02 99 -278.04 99 -276 99 C-276.061875 99.78375 -276.12375 100.5675 -276.1875 101.375 C-276.125625 102.24125 -276.06375 103.1075 -276 104 C-273.10420618 106.37222995 -273.10420618 106.37222995 -269.4375 105.75 C-265.95407388 105.3141556 -265.95407388 105.3141556 -264 103 C-263.79090571 100.31414531 -263.69889863 97.72298276 -263.69140625 95.03515625 C-263.6662485 93.41470991 -263.64085045 91.79426729 -263.61523438 90.17382812 C-263.58646692 87.6149998 -263.56245409 85.05623598 -263.54370117 82.49731445 C-263.52207635 80.03042172 -263.48264175 77.56428758 -263.44140625 75.09765625 C-263.44129044 74.33195816 -263.44117462 73.56626007 -263.4410553 72.77735901 C-263.34151173 67.44848999 -263.34151173 67.44848999 -261.47241211 64.99389648 C-260.98651611 64.66591064 -260.50062012 64.3379248 -260 64 C-261.35852131 60.91306296 -262.84510953 58.91358266 -265.375 56.6875 C-266.25285156 55.88892578 -266.25285156 55.88892578 -267.1484375 55.07421875 C-268.91919763 53.83626321 -268.91919763 53.83626321 -270.9140625 54.01953125 C-273.24760505 54.9327954 -273.24760505 54.9327954 -275.0546875 57.51953125 C-279.46905376 61.23720045 -283.52236757 60.79109534 -289.125 60.6875 C-290.15584717 60.68041016 -291.18669434 60.67332031 -292.2487793 60.66601562 C-300.40346849 60.42322814 -305.39158657 58.8375314 -312 54 C-312.66 54 -313.32 54 -314 54 Z M-11 56 C-12.1446875 57.175625 -12.1446875 57.175625 -13.3125 58.375 C-16 61 -16 61 -19 63 C-18.505 63.37125 -18.01 63.7425 -17.5 64.125 C-16 66 -16 66 -15.625 69.0625 C-15.810625 70.5165625 -15.810625 70.5165625 -16 72 C-16.99 72.66 -17.98 73.32 -19 74 C-20.02965768 78.21033343 -20.20883093 82.45807153 -20.4296875 86.77734375 C-20.5011499 88.08501709 -20.5726123 89.39269043 -20.64624023 90.73999023 C-20.68321014 91.42535858 -20.72018005 92.11072693 -20.75827026 92.81686401 C-21.3495905 103.55941346 -22.07237682 114.26073385 -23.4375 124.9375 C-23.54755371 125.8339624 -23.65760742 126.7304248 -23.77099609 127.65405273 C-24.95045348 136.28119957 -26.72661741 143.72661741 -33 150 C-37.52929705 153.20364913 -41.26010198 154.14323379 -46.75 154.0625 C-47.54921875 154.05347656 -48.3484375 154.04445313 -49.171875 154.03515625 C-49.77515625 154.02355469 -50.3784375 154.01195312 -51 154 C-51.01417969 153.40832031 -51.02835937 152.81664062 -51.04296875 152.20703125 C-51.29891171 147.96667901 -51.52116238 145.61564837 -54.1875 142.1875 C-57.02669729 139.92105889 -57.02669729 139.92105889 -60.3125 137.8125 C-61.199375 137.214375 -62.08625 136.61625 -63 136 C-63 135.34 -63 134.68 -63 134 C-62.44014404 134.02094727 -61.88028809 134.04189453 -61.3034668 134.06347656 C-58.76499414 134.14666202 -56.226808 134.19866381 -53.6875 134.25 C-52.80642578 134.28351563 -51.92535156 134.31703125 -51.01757812 134.3515625 C-46.15861232 134.55171821 -46.15861232 134.55171821 -41.9921875 132.4453125 C-40.68308985 129.21895373 -39.96888003 126.04802171 -39.4375 122.625 C-39.31528076 121.86695068 -39.19306152 121.10890137 -39.06713867 120.32788086 C-36.66324565 104.09094884 -35.81852796 87.40228022 -36 71 C-39.63 71 -43.26 71 -47 71 C-48.22484676 73.44969351 -48.41132418 75.52870069 -48.76171875 78.25 C-50.59195502 91.71682396 -52.78315402 104.40891829 -58 117 C-58.25620117 117.62261719 -58.51240234 118.24523437 -58.77636719 118.88671875 C-62.22596282 127.00646957 -66.78861727 133.77419016 -72.4440918 140.47167969 C-75.36206935 143.76556151 -75.36206935 143.76556151 -76 148 C-61.57738195 161.67477859 -35.57566498 159.37073907 -17.25 159.3125 C-15.60807678 159.31126129 -15.60807678 159.31126129 -13.9329834 159.30999756 C10.27602262 159.26811957 34.05473225 157.60521136 58 154 C57.64526611 153.26177002 57.29053223 152.52354004 56.92504883 151.76293945 C51.42146051 140.30952592 49.54545682 130.51416911 49.8125 117.8125 C49.82603516 116.57435547 49.83957031 115.33621094 49.85351562 114.06054688 C49.88850066 111.04017251 49.9422925 108.02002568 50 105 C41.75 105 33.5 105 25 105 C24.97421875 107.73410156 24.9484375 110.46820313 24.921875 113.28515625 C24.88340062 115.9495651 24.83825787 118.61378395 24.79248047 121.27807617 C24.76435278 123.12173303 24.74309761 124.96550863 24.72900391 126.80932617 C24.70746009 129.46855097 24.6607533 132.12636034 24.609375 134.78515625 C24.60814636 135.60210464 24.60691772 136.41905304 24.60565186 137.26075745 C24.46200097 142.94512858 23.26260631 146.31555017 20 151 C14.47076921 155.14692309 9.66770728 155.11112845 3 155 C2.814375 154.11248047 2.814375 154.11248047 2.625 153.20703125 C1.41368323 148.56617389 0.30320787 145.66773416 -3.8125 143 C-7.14481814 141.2075701 -10.19491021 140.28538173 -14 140 C-14 138.68 -14 137.36 -14 136 C-7.07 136 -0.14 136 7 136 C7 125.77 7 115.54 7 105 C4.15375 104.979375 1.3075 104.95875 -1.625 104.9375 C-2.95265381 104.92384399 -2.95265381 104.92384399 -4.30712891 104.90991211 C-8.65478226 104.89474474 -12.71953071 105.12035663 -17 106 C-17.66 103.03 -18.32 100.06 -19 97 C-17.57494141 97.49113281 -17.57494141 97.49113281 -16.12109375 97.9921875 C-11.43835441 99.33011303 -6.89574715 99.21981068 -2.0625 99.125 C0.928125 99.08375 3.91875 99.0425 7 99 C7 92.07 7 85.14 7 78 C10.63 78.66 14.26 79.32 18 80 C19.17441535 77.89983377 20.33964012 75.79541245 21.5 73.6875 C21.83386719 73.09259766 22.16773438 72.49769531 22.51171875 71.88476562 C24.06825114 69.04171156 25 67.29339012 25 64 C21.37507033 63.94108016 17.75026666 63.9060991 14.125 63.875 C13.11179687 63.85824219 12.09859375 63.84148437 11.0546875 63.82421875 C4.45442651 63.78190938 -1.58825353 64.42328275 -8 66 C-8.1953125 63.98177083 -8.390625 61.96354167 -8.5859375 59.9453125 C-8.86374749 57.77331755 -8.86374749 57.77331755 -11 56 Z M-93 75 C-94.10021965 76.29837748 -95.18007388 77.6140479 -96.25 78.9375 C-100.10596416 82.98626237 -102.96499832 83.64705961 -108.5 84 C-110.66636073 84.03640942 -112.8338802 84.04867685 -115 84 C-115 84.99 -115 85.98 -115 87 C-110.05 87 -105.1 87 -100 87 C-99.82113602 94.5450851 -99.72805968 102.08464223 -99.71313477 109.63183594 C-99.69613811 112.19655039 -99.65602578 114.76122279 -99.59204102 117.32519531 C-99.09688754 138.0813847 -99.09688754 138.0813847 -102.2538147 142.92285156 C-105.66009204 146.18172732 -109.54341812 147.55384181 -114 149 C-115.79164963 149.96220699 -117.56788981 150.95492297 -119.3125 152 C-120.53990931 152.66989665 -121.7683102 153.33800652 -123 154 C-120.67351466 161.88420031 -117.57359989 171.60536096 -111 177 C-110.34 177 -109.68 177 -109 177 C-108.92160889 176.38108887 -108.84321777 175.76217773 -108.76245117 175.12451172 C-107.67498357 168.25787466 -105.36208189 163.70461634 -101.3125 158.125 C-100.22777849 156.56958102 -99.14574768 155.01228216 -98.06640625 153.453125 C-97.54191895 152.70095703 -97.01743164 151.94878906 -96.47705078 151.17382812 C-93.3779272 146.61273782 -90.68170114 141.81573092 -88 137 C-87.64808594 137.97839844 -87.29617188 138.95679688 -86.93359375 139.96484375 C-82.58520531 151.67215837 -77.1857543 161.51808169 -66 168 C-46.3455823 176.38203108 -24.96022633 176.17368719 -3.96191406 176.13037109 C-0.90164146 176.12504635 2.15848204 176.1303268 5.21875 176.13671875 C14.85804309 176.14118543 24.48608229 176.03387018 34.1171875 175.6171875 C34.92874298 175.58682404 35.74029846 175.55646057 36.57644653 175.525177 C41.0075287 175.30283279 44.8919429 174.84136398 49 173 C50.22950379 170.3325363 50.22950379 170.3325363 50.625 167.1875 C51.45674258 162.33566827 52.67762724 159.66817074 56 156 C55.44989258 156.0501123 54.89978516 156.10022461 54.33300781 156.15185547 C48.35674631 156.6925882 42.37853108 157.20662576 36.39892578 157.70898438 C34.2118139 157.89624464 32.02522323 158.08975235 29.83935547 158.29101562 C14.36014459 159.71339037 -1.02701422 160.20836974 -16.5625 160.25 C-17.43838776 160.25517639 -18.31427551 160.26035278 -19.21670532 160.26568604 C-62.95384953 160.46993332 -62.95384953 160.46993332 -76.64453125 149.46484375 C-78 148 -78 148 -79 145 C-79.9793879 143.97980427 -80.97895449 142.97850195 -82 142 C-83.18822545 139.62354911 -83.15177731 138.11463529 -83.19287109 135.46191406 C-83.20893402 134.52043518 -83.22499695 133.5789563 -83.24154663 132.60894775 C-83.28600852 128.29627177 -83.32707089 123.98375011 -83.35009766 119.67089844 C-83.36664785 117.39735674 -83.39392525 115.12386688 -83.43212891 112.85058594 C-83.48694694 109.5719911 -83.50878093 106.29461667 -83.5234375 103.015625 C-83.54610687 102.00292542 -83.56877625 100.99022583 -83.59213257 99.94683838 C-83.57811084 95.25287823 -83.53734388 92.02180387 -80.46728516 88.31152344 C-79.65308105 87.5487207 -78.83887695 86.78591797 -78 86 C-81.92831431 81.82616605 -86.16479983 78.10605574 -91 75 C-91.66 75 -92.32 75 -93 75 Z M-122 83 C-121.67 84.65 -121.34 86.3 -121 88 C-119.68 87.67 -118.36 87.34 -117 87 C-117 86.01 -117 85.02 -117 84 C-118.65 83.67 -120.3 83.34 -122 83 Z M-301 100 C-301.268125 100.969375 -301.53625 101.93875 -301.8125 102.9375 C-302.204375 103.948125 -302.59625 104.95875 -303 106 C-307.47254497 107.49084832 -311.52745503 107.49084832 -316 106 C-316.33 106.99 -316.66 107.98 -317 109 C-323.93 109 -330.86 109 -338 109 C-338 119.56 -338 130.12 -338 141 C-333.56270636 140.26045106 -330.23352326 139.49072221 -326.125 137.9375 C-324.67480469 137.39416016 -324.67480469 137.39416016 -323.1953125 136.83984375 C-322.47085938 136.56269531 -321.74640625 136.28554688 -321 136 C-321 136.66 -321 137.32 -321 138 C-320.34 138 -319.68 138 -319 138 C-318.32315702 134.96050698 -317.66038128 131.91810835 -317 128.875 C-316.71382812 127.59109375 -316.71382812 127.59109375 -316.421875 126.28125 C-315.45079667 121.77267206 -314.75640425 117.64354396 -315 113 C-313.86820313 113.3609375 -312.73640625 113.721875 -311.5703125 114.09375 C-310.08858907 114.56264982 -308.60681563 115.03139164 -307.125 115.5 C-306.37863281 115.73847656 -305.63226563 115.97695312 -304.86328125 116.22265625 C-301.00757933 117.52770415 -301.00757933 117.52770415 -297 118 C-297 112.06 -297 106.12 -297 100 C-298.32 100 -299.64 100 -301 100 Z M52 100 C52 100.99 52 101.98 52 103 C52.99 102.67 53.98 102.34 55 102 C54.67 101.34 54.34 100.68 54 100 C53.34 100 52.68 100 52 100 Z M-313 115 C-313.12004395 115.6077124 -313.24008789 116.2154248 -313.36376953 116.84155273 C-316.5935719 132.97081506 -320.09482088 148.73786108 -328.21484375 163.21484375 C-328.47394531 163.80394531 -328.73304688 164.39304687 -329 165 C-328.67 165.66 -328.34 166.32 -328 167 C-316.8090573 156.88053054 -308.70138824 145.34727785 -303.41918945 131.19091797 C-301.74103063 126.88998833 -300.22682324 124.92324046 -296 123 C-299.1967305 119.23355515 -302.03375686 118.07054808 -306.75 116.75 C-307.92046875 116.41484375 -309.0909375 116.0796875 -310.296875 115.734375 C-311.18890625 115.49203125 -312.0809375 115.2496875 -313 115 Z " fill="#000000" transform="translate(542,120)"/>
<path d="M0 0 C24.42 0 48.84 0 74 0 C74 21.45 74 42.9 74 65 C49.58 65 25.16 65 0 65 C0 43.55 0 22.1 0 0 Z M2 1 C2 21.46 2 41.92 2 63 C25.1 63 48.2 63 72 63 C72 42.54 72 22.08 72 1 C48.9 1 25.8 1 2 1 Z " fill="#000000" transform="translate(67,210)"/>
<path d="M0 0 C8.65248145 0.6655755 15.1295282 1.17515798 23 4 C23.495 6.475 23.495 6.475 24 9 C23.19175781 9.44859375 22.38351562 9.8971875 21.55078125 10.359375 C17.75441695 14.28945504 18.22075221 17.97398328 18.1875 23.25 C18.16236328 24.18585938 18.13722656 25.12171875 18.11132812 26.0859375 C18.0525243 28.39104732 18.01619733 30.69426174 18 33 C23.98196501 31.58018421 26.83140625 29.68698814 31.0078125 25.36328125 C33 24 33 24 35.48046875 24.078125 C38.33312265 25.12188674 39.96995359 26.37436688 42.1875 28.4375 C42.86167969 29.05496094 43.53585937 29.67242187 44.23046875 30.30859375 C47.99559471 33.90748899 47.99559471 33.90748899 48.125 36.625 C48.08375 37.40875 48.0425 38.1925 48 39 C47.30588516 39.01030746 46.61177032 39.02061493 45.8966217 39.03123474 C39.32123549 39.12964462 32.74592848 39.23221636 26.17067814 39.33933926 C22.79114294 39.3942546 19.41159875 39.44762025 16.03198242 39.49731445 C12.1371316 39.55538236 8.24240315 39.61897021 4.34765625 39.68359375 C2.54712547 39.70866249 2.54712547 39.70866249 0.71022034 39.73423767 C-5.59520817 39.84450757 -11.74594998 40.18070487 -18 41 C-18.66 37.7 -19.32 34.4 -20 31 C-9.605 31.99 -9.605 31.99 1 33 C0.67 22.11 0.34 11.22 0 0 Z M2 2 C2.33 12.89 2.66 23.78 3 35 C-3.6 34.67 -10.2 34.34 -17 34 C-16.67 35.32 -16.34 36.64 -16 38 C4.46 38 24.92 38 46 38 C44.89706336 33.58825345 43.97669515 32.63216407 40.6875 29.6875 C39.90761719 28.96949219 39.12773437 28.25148437 38.32421875 27.51171875 C36.16989676 25.79880902 36.16989676 25.79880902 33.91015625 26.05078125 C30.94364698 27.52493616 29.25708102 29.88748629 27.171875 32.40625 C23.92003143 34.79249492 20.99144276 34.70188394 17 35 C17.05174717 31.06141549 17.14679367 27.12504572 17.25 23.1875 C17.26417969 22.06794922 17.27835937 20.94839844 17.29296875 19.79492188 C17.32519531 18.72177734 17.35742188 17.64863281 17.390625 16.54296875 C17.41157227 15.55321045 17.43251953 14.56345215 17.45410156 13.54370117 C18 11 18 11 20.03808594 9.15356445 C21.0092334 8.58255005 21.0092334 8.58255005 22 8 C21.505 6.515 21.505 6.515 21 5 C18.58424393 4.49521515 16.16755639 3.99602358 13.75 3.5 C13.06808594 3.35691406 12.38617188 3.21382813 11.68359375 3.06640625 C8.35366879 2.38748951 5.41667449 2 2 2 Z " fill="#000000" transform="translate(243,123)"/>
<path d="M0 0 C11.68649345 0.38316372 20.57234339 4.91139504 29.0390625 12.81640625 C32.60735614 16.7898647 33.29233882 19.60822726 33.3125 24.9375 C33.32925781 25.95714844 33.34601563 26.97679687 33.36328125 28.02734375 C32.95085176 31.40217003 31.97262263 33.25970649 30 36 C26.98247135 38.34696672 23.68971902 38.33519279 20 38.55859375 C16.75793134 37.65309411 15.81088572 35.78486808 14 33 C12.71785847 30.15815837 11.67084202 27.24816484 10.625 24.3125 C8.33491014 18.13802475 5.8839004 12.48278472 2.26171875 6.9453125 C1.01334204 5.0205707 -0.01212543 3.06850733 -1 1 C-0.67 0.67 -0.34 0.34 0 0 Z M2 2 C2.50789063 2.81339844 3.01578125 3.62679687 3.5390625 4.46484375 C8.02610017 11.86446232 11.40872178 19.13348525 14.00830078 27.40014648 C15.49813985 32.38543652 15.49813985 32.38543652 19 36 C23.3509629 36.6445871 25.26779405 36.52527818 28.875 33.9375 C31.7568361 29.9537854 32.46118395 26.94448217 31.6953125 22.0546875 C29.85415239 15.62323778 25.41785354 11.65705114 20 8 C14.34499791 4.93847676 8.49653587 2 2 2 Z " fill="#000000" transform="translate(424,128)"/>
<path d="M0 0 C7.92 0 15.84 0 24 0 C24 14.19 24 28.38 24 43 C16.08 43 8.16 43 0 43 C0 28.81 0 14.62 0 0 Z M2 1 C2 14.53 2 28.06 2 42 C8.6 42 15.2 42 22 42 C22 28.47 22 14.94 22 1 C15.4 1 8.8 1 2 1 Z " fill="#000000" transform="translate(184,140)"/>
<path d="M0 0 C8.58 0 17.16 0 26 0 C26 10.56 26 21.12 26 32 C17.42 32 8.84 32 0 32 C0 21.44 0 10.88 0 0 Z M1 1 C1 10.57 1 20.14 1 30 C8.59 30 16.18 30 24 30 C24 20.43 24 10.86 24 1 C16.41 1 8.82 1 1 1 Z " fill="#000000" transform="translate(240,184)"/>
<path d="M0 0 C9.74315068 -0.54128615 18.23614776 2.00716475 26 8 C29.11801528 10.88416413 30.25304783 12.89518219 30.5 17.0625 C30 21 30 21 28.375 23.5 C25.25991849 25.4674199 23.62829011 25.5923739 20 25 C16.33110546 22.89038564 14.45245147 20.25335001 12.25 16.75 C9.38980848 12.20514071 5.95779004 9.13014166 1.7578125 5.82421875 C0 4 0 4 0 0 Z M2 2 C2.99 2.9590625 2.99 2.9590625 4 3.9375 C9.57440967 9.52779118 14.80960873 15.29537397 19 22 C20.11258591 23.32745166 20.11258591 23.32745166 22.9375 23.25 C23.948125 23.1675 24.95875 23.085 26 23 C28.36086122 19.45870816 28.57269578 18.17249782 28 14 C24.11776791 7.65902093 17.94694233 4.50923664 10.92578125 2.3671875 C7.95385605 1.80053239 5.01468036 1.94202538 2 2 Z " fill="#000000" transform="translate(718,127)"/>
<path d="M0 0 C8.62734248 0.28757808 16.58176221 2.96668444 23.0625 8.8828125 C28.0106831 14.56846519 28.0106831 14.56846519 27.984375 18.09375 C27.86835937 19.28484375 27.86835937 19.28484375 27.75 20.5 C27.68296875 21.2940625 27.6159375 22.088125 27.546875 22.90625 C27 25 27 25 24 27 C20.5625 27.375 20.5625 27.375 17 27 C12.77539965 23.54736477 10.2391376 18.82178317 7.44335938 14.22070312 C5.51802841 11.12749377 3.83881546 8.8476596 1.15234375 6.30859375 C0.44207031 5.54675781 -0.26820313 4.78492188 -1 4 C-0.8125 1.6875 -0.8125 1.6875 0 0 Z M1 2 C1.56050049 2.61222412 1.56050049 2.61222412 2.13232422 3.23681641 C6.63580377 8.30021106 10.01520597 13.7106209 13.38671875 19.56640625 C13.79792969 20.25347656 14.20914063 20.94054687 14.6328125 21.6484375 C15.17252686 22.57922119 15.17252686 22.57922119 15.72314453 23.52880859 C17.36503583 25.42059386 18.54742998 25.68025665 21 26 C23.28164024 25.65106834 23.28164024 25.65106834 25 24 C26.25649222 19.91640027 26.39009537 17.83107274 24.5625 13.9375 C19.14305001 7.72495976 13.12458648 3.74098282 5 2 C3.68 2 2.36 2 1 2 Z " fill="#000000" transform="translate(703,139)"/>
<path d="M0 0 C7.61191192 1.14342025 13.62142275 8.12149491 18 14 C19.86394552 17.72789104 19.55445363 21.94037972 19 26 C16.9375 29.125 16.9375 29.125 14 31 C10.375 31.5625 10.375 31.5625 7 31 C3.5231489 27.71264552 3.38416536 23.90455304 3 19.375 C2.34252308 12.9722536 1.1929825 7.08187147 -1 1 C-0.67 0.67 -0.34 0.34 0 0 Z M2 3 C2.20496094 3.89460937 2.40992188 4.78921875 2.62109375 5.7109375 C3.88697412 11.39225706 5.09029826 16.8640553 5.375 22.6875 C5.4851941 25.0091032 5.4851941 25.0091032 6 27 C8.37255115 29.21306951 8.37255115 29.21306951 11 30 C14.19626983 28.48597745 15.75722996 27.43496299 17.5 24.3125 C18.18249397 19.79097746 17.29910301 16.91755052 15 13 C11.86104247 9.21212336 8.17565258 5.62911459 4 3 C3.34 3 2.68 3 2 3 Z " fill="#000000" transform="translate(263,235)"/>
<path d="M0 0 C7.73671473 0.8671427 13.7228221 5.33353194 19.0625 10.875 C21.54987737 14.88689898 22.32944728 18.29237182 22 23 C20.85848113 25.49058663 19.9103944 27.0896056 18 29 C12.16573034 29.56460674 12.16573034 29.56460674 10 29 C6.63110587 24.76067389 5.74327445 19.68096268 4.5390625 14.52734375 C3.54992004 10.51401983 2.11749769 7.51312116 0 4 C0 2.68 0 1.36 0 0 Z M3 3 C3.2784375 3.80953125 3.556875 4.6190625 3.84375 5.453125 C4.68764298 8.04182374 5.47692159 10.61684754 6.21875 13.234375 C6.42886719 13.97300781 6.63898438 14.71164063 6.85546875 15.47265625 C7.28925202 17.00535714 7.71886585 18.53924353 8.14453125 20.07421875 C9.32885174 24.44260806 9.32885174 24.44260806 12 28 C14.99911465 27.84619925 16.55957592 27.36702006 18.875 25.4375 C20.55961547 21.78749981 20.23678874 18.71036622 19 15 C15.73121812 9.52197244 10.67570303 5.77393594 5 3 C4.34 3 3.68 3 3 3 Z " fill="#000000" transform="translate(316,138)"/>
<path d="M0 0 C2.7707068 2.94946208 2.98848606 4.76588326 3.1875 8.8125 C3.125625 9.864375 3.06375 10.91625 3 12 C1.23050905 12.10815225 -0.54087487 12.18566083 -2.3125 12.25 C-3.29863281 12.29640625 -4.28476562 12.3428125 -5.30078125 12.390625 C-8 12 -8 12 -9.86328125 10.1796875 C-11.4731682 7.09268779 -10.99593487 5.27235742 -10 2 C-6.28500878 -0.47666082 -4.39092112 -0.54886514 0 0 Z M-5 3 C-5.66 4.32 -6.32 5.64 -7 7 C-5.02 7.99 -5.02 7.99 -3 9 C-2.34 7.68 -1.68 6.36 -1 5 C-2.32 4.34 -3.64 3.68 -5 3 Z " fill="#000000" transform="translate(647,317)"/>
<path d="M0 0 C1.70703125 1.23046875 1.70703125 1.23046875 3 3 C3.29296875 5.26171875 3.29296875 5.26171875 3.1875 7.6875 C3.16042969 8.49574219 3.13335937 9.30398438 3.10546875 10.13671875 C3.07066406 10.75160156 3.03585938 11.36648438 3 12 C1.20866022 12.05391993 -0.58313899 12.09275571 -2.375 12.125 C-3.37273437 12.14820313 -4.37046875 12.17140625 -5.3984375 12.1953125 C-8 12 -8 12 -10 10 C-10.54587156 3.99541284 -10.54587156 3.99541284 -8.9375 1.0625 C-5.88023824 -0.6140629 -3.4093712 -0.36528977 0 0 Z M-4 3 C-4.99 3.495 -4.99 3.495 -6 4 C-6 5.32 -6 6.64 -6 8 C-5.01 8.33 -4.02 8.66 -3 9 C-2.34 8.67 -1.68 8.34 -1 8 C-1 6.68 -1 5.36 -1 4 C-1.99 3.67 -2.98 3.34 -4 3 Z " fill="#000000" transform="translate(194,317)"/>
<path d="M0 0 C1.9375 1.25 1.9375 1.25 3 3 C3 4.32 3 5.64 3 7 C1.35 7.33 -0.3 7.66 -2 8 C-1.01 8.33 -0.02 8.66 1 9 C0.67 9.99 0.34 10.98 0 12 C-6.3782235 12.36103152 -6.3782235 12.36103152 -8.9375 10.875 C-10.50422245 8.11019567 -10.38976435 6.11811483 -10 3 C-7.72054654 -1.02256493 -4.21158603 -0.45124136 0 0 Z " fill="#000000" transform="translate(471,317)"/>
<path d="M0 0 C2.375 0.25 2.375 0.25 5 1 C6.3125 3.0625 6.3125 3.0625 7 5 C7.66 3.35 8.32 1.7 9 0 C10.32 0 11.64 0 13 0 C12.32740579 3.94783555 11.20196349 7.5190052 9.75 11.25 C9.35296875 12.30703125 8.9559375 13.3640625 8.546875 14.453125 C7 17 7 17 4.328125 17.859375 C3.55984375 17.90578125 2.7915625 17.9521875 2 18 C2.226875 16.700625 2.45375 15.40125 2.6875 14.0625 C3.30424986 8.81179172 2.01293571 4.81057518 0 0 Z " fill="#000000" transform="translate(276,317)"/>
<path d="M0 0 C1.32 0 2.64 0 4 0 C4.33 2.64 4.66 5.28 5 8 C6.65 8 8.3 8 10 8 C10 5.36 10 2.72 10 0 C11.32 0 12.64 0 14 0 C14.08131463 1.43655854 14.13933559 2.8744483 14.1875 4.3125 C14.22230469 5.11300781 14.25710938 5.91351563 14.29296875 6.73828125 C14 9 14 9 12.73828125 10.76171875 C10.10562007 12.63712008 8.02589422 12.5433742 4.875 12.41015625 C3 12 3 12 1 9.9375 C-0.17791933 6.47736198 -0.21360826 3.63134037 0 0 Z " fill="#000000" transform="translate(367,317)"/>
<path d="M0 0 C1.32 0 2.64 0 4 0 C4 6.93 4 13.86 4 21 C2.68 21 1.36 21 0 21 C0 14.07 0 7.14 0 0 Z " fill="#000000" transform="translate(553,308)"/>
<path d="M0 0 C2.625 -0.1875 2.625 -0.1875 5 0 C5 0.99 5 1.98 5 3 C4.01 3.495 4.01 3.495 3 4 C2.53476937 5.89533342 2.53476937 5.89533342 2.375 8.0625 C2.189375 10.0115625 2.189375 10.0115625 2 12 C0.68 12 -0.64 12 -2 12 C-2.05422947 10.5629191 -2.09289723 9.12524538 -2.125 7.6875 C-2.14820312 6.88699219 -2.17140625 6.08648437 -2.1953125 5.26171875 C-2 3 -2 3 0 0 Z " fill="#000000" transform="translate(101,317)"/>
</svg>
